<svg width="81" height="80" viewBox="0 0 81 80" fill="none" xmlns="http://www.w3.org/2000/svg">
<path d="M30.5043 73.2163H50.4433C67.0591 73.2163 73.7054 66.5697 73.7054 49.9531V30.0132C73.7054 13.3966 67.0591 6.75 50.4433 6.75H30.5043C13.8885 6.75 7.24219 13.3966 7.24219 30.0132V49.9531C7.24219 66.5697 13.8885 73.2163 30.5043 73.2163Z" stroke="black" stroke-width="4.98474" stroke-linecap="round" stroke-linejoin="round"/>
<path d="M54.6867 45.3328C50.9316 49.0881 45.548 50.2513 40.7959 48.7558L32.1889 57.3299C31.5908 57.9614 30.3612 58.3602 29.464 58.2272L25.4762 57.6955C24.1469 57.5293 22.9506 56.2665 22.7512 54.9704L22.2195 50.9824C22.0865 50.1184 22.5185 48.8887 23.1167 48.2573L31.6905 39.6832C30.2283 34.9308 31.3582 29.5471 35.1133 25.7917C40.4968 20.408 49.27 20.408 54.6867 25.7917C60.0702 31.1423 60.0702 39.9158 54.6867 45.3328Z" stroke="black" stroke-width="4.98474" stroke-miterlimit="10" stroke-linecap="round" stroke-linejoin="round"/>
<path d="M35.3326 54.2174L32.5078 51.3594" stroke="black" stroke-width="4.98474" stroke-miterlimit="10" stroke-linecap="round" stroke-linejoin="round"/>
<path d="M45.0938 35.6719H45.1234" stroke="black" stroke-width="6.64632" stroke-linecap="round" stroke-linejoin="round"/>
</svg>
