<svg width="81" height="81" viewBox="0 0 81 81" fill="none" xmlns="http://www.w3.org/2000/svg">
<path d="M40.7943 76.1837C38.7007 76.1837 36.74 75.3864 35.2779 73.8909L30.2267 68.8395C29.8279 68.4407 28.7645 68.0087 28.2327 68.0087H21.0547C16.7346 68.0087 13.2453 64.5189 13.2453 60.1985V53.0205C13.2453 52.4888 12.8132 51.4253 12.4145 51.0265L7.36329 45.9751C5.9011 44.5128 5.07031 42.5518 5.07031 40.4581C5.07031 38.3644 5.86787 36.4036 7.36329 34.9414L12.4145 29.8899C12.8132 29.4911 13.2453 28.4277 13.2453 27.8959V20.7179C13.2453 16.3976 16.7346 12.9078 21.0547 12.9078H28.2327C28.7645 12.9078 29.8279 12.4757 30.2267 12.0769L35.2779 7.02542C38.2022 4.1009 43.3864 4.1009 46.3107 7.02542L51.362 12.0769C51.7607 12.4757 52.8241 12.9078 53.3559 12.9078H60.5339C64.854 12.9078 68.3433 16.3976 68.3433 20.7179V27.8959C68.3433 28.4277 68.7753 29.4911 69.1741 29.8899L74.2253 34.9414C75.6875 36.4036 76.5183 38.3644 76.5183 40.4581C76.5183 42.5518 75.7207 44.5128 74.2253 45.9751L69.1741 51.0265C68.7753 51.4253 68.3433 52.4888 68.3433 53.0205V60.1985C68.3433 64.5189 64.854 68.0087 60.5339 68.0087H53.3559C52.8241 68.0087 51.7607 68.4407 51.362 68.8395L46.3107 73.8909C44.8486 75.3864 42.8879 76.1837 40.7943 76.1837ZM15.937 47.5035C17.2663 48.8328 18.23 51.1595 18.23 53.0205V60.1985C18.23 61.7605 19.4928 63.0237 21.0547 63.0237H28.2327C30.0937 63.0237 32.42 63.9871 33.7492 65.3165L38.8004 70.3679C39.8638 71.4313 41.7248 71.4313 42.7882 70.3679L47.8394 65.3165C49.1687 63.9871 51.4949 63.0237 53.3559 63.0237H60.5339C62.0958 63.0237 63.3586 61.7605 63.3586 60.1985V53.0205C63.3586 51.1595 64.3223 48.8328 65.6515 47.5035L70.7028 42.452C71.2345 41.9203 71.5335 41.2224 71.5335 40.4581C71.5335 39.6937 71.2345 38.9961 70.7028 38.4644L65.6515 33.4128C64.3223 32.0834 63.3586 29.757 63.3586 27.8959V20.7179C63.3586 19.1559 62.0958 17.8927 60.5339 17.8927H53.3559C51.4949 17.8927 49.1687 16.9292 47.8394 15.5998L42.7882 10.5483C41.7248 9.48487 39.8638 9.48487 38.8004 10.5483L33.7492 15.5998C32.42 16.9292 30.0937 17.8927 28.2327 17.8927H21.0547C19.4928 17.8927 18.23 19.1559 18.23 20.7179V27.8959C18.23 29.757 17.2663 32.0834 15.937 33.4128L10.8858 38.4644C10.3541 38.9961 10.0551 39.6937 10.0551 40.4581C10.0551 41.2224 10.3541 41.9203 10.8858 42.452L15.937 47.5035Z" fill="black"/>
<path d="M50.7705 53.7521C48.9095 53.7521 47.4141 52.2566 47.4141 50.4288C47.4141 48.601 48.9095 47.1055 50.7372 47.1055C52.565 47.1055 54.0604 48.601 54.0604 50.4288C54.0604 52.2566 52.5982 53.7521 50.7705 53.7521Z" fill="black"/>
<path d="M30.8564 33.8068C28.9955 33.8068 27.5 32.3113 27.5 30.4835C27.5 28.6556 28.9954 27.1602 30.8232 27.1602C32.6509 27.1602 34.1463 28.6556 34.1463 30.4835C34.1463 32.3113 32.6842 33.8068 30.8564 33.8068Z" fill="black"/>
<path d="M30.8122 52.9128C30.1808 52.9128 29.5494 52.6802 29.0509 52.1817C28.0872 51.2179 28.0872 49.6227 29.0509 48.659L48.99 28.7189C49.9538 27.7552 51.5489 27.7552 52.5126 28.7189C53.4763 29.6827 53.4763 31.2781 52.5126 32.2418L32.5735 52.1817C32.075 52.6802 31.4436 52.9128 30.8122 52.9128Z" fill="black"/>
</svg>
