<svg width="81" height="81" viewBox="0 0 81 81" fill="none" xmlns="http://www.w3.org/2000/svg">
<path d="M40.3802 75.9806C38.2866 75.9806 36.326 75.1833 34.8638 73.6878L29.8126 68.6364C29.4138 68.2376 28.3504 67.8055 27.8187 67.8055H20.6407C16.3205 67.8055 12.8312 64.3157 12.8312 59.9954V52.8174C12.8312 52.2857 12.3992 51.2222 12.0004 50.8234L6.94923 45.772C5.48704 44.3097 4.65625 42.3486 4.65625 40.2549C4.65625 38.1612 5.45381 36.2005 6.94923 34.7382L12.0004 29.6867C12.3992 29.2879 12.8312 28.2245 12.8312 27.6928V20.5147C12.8312 16.1944 16.3205 12.7046 20.6407 12.7046H27.8187C28.3504 12.7046 29.4138 12.2726 29.8126 11.8738L34.8638 6.82229C37.7882 3.89778 42.9723 3.89778 45.8967 6.82229L50.9479 11.8738C51.3467 12.2726 52.4101 12.7046 52.9418 12.7046H60.1198C64.4399 12.7046 67.9292 16.1944 67.9292 20.5147V27.6928C67.9292 28.2245 68.3613 29.2879 68.76 29.6867L73.8112 34.7382C75.2734 36.2005 76.1042 38.1612 76.1042 40.2549C76.1042 42.3486 75.3067 44.3097 73.8112 45.772L68.76 50.8234C68.3613 51.2222 67.9292 52.2857 67.9292 52.8174V59.9954C67.9292 64.3157 64.4399 67.8055 60.1198 67.8055H52.9418C52.4101 67.8055 51.3467 68.2376 50.9479 68.6364L45.8967 73.6878C44.4345 75.1833 42.4738 75.9806 40.3802 75.9806ZM15.523 47.3004C16.8522 48.6297 17.8159 50.9563 17.8159 52.8174V59.9954C17.8159 61.5574 19.0788 62.8206 20.6407 62.8206H27.8187C29.6797 62.8206 32.0059 63.784 33.3351 65.1133L38.3863 70.1648C39.4497 71.2282 41.3107 71.2282 42.3741 70.1648L47.4253 65.1133C48.7546 63.784 51.0808 62.8206 52.9418 62.8206H60.1198C61.6817 62.8206 62.9445 61.5574 62.9445 59.9954V52.8174C62.9445 50.9563 63.9082 48.6297 65.2375 47.3004L70.2887 42.2489C70.8204 41.7172 71.1195 41.0193 71.1195 40.2549C71.1195 39.4906 70.8204 38.793 70.2887 38.2613L65.2375 33.2096C63.9082 31.8803 62.9445 29.5539 62.9445 27.6928V20.5147C62.9445 18.9528 61.6817 17.6896 60.1198 17.6896H52.9418C51.0808 17.6896 48.7546 16.726 47.4253 15.3967L42.3741 10.3452C41.3107 9.28175 39.4497 9.28175 38.3863 10.3452L33.3351 15.3967C32.0059 16.726 29.6797 17.6896 27.8187 17.6896H20.6407C19.0788 17.6896 17.8159 18.9528 17.8159 20.5147V27.6928C17.8159 29.5539 16.8522 31.8803 15.523 33.2096L10.4718 38.2613C9.94008 38.793 9.64099 39.4906 9.64099 40.2549C9.64099 41.0193 9.94008 41.7172 10.4718 42.2489L15.523 47.3004Z" fill="black"/>
<path d="M50.3486 53.549C48.4876 53.549 46.9922 52.0535 46.9922 50.2257C46.9922 48.3978 48.4876 46.9023 50.3153 46.9023C52.1431 46.9023 53.6385 48.3978 53.6385 50.2257C53.6385 52.0535 52.1763 53.549 50.3486 53.549Z" fill="black"/>
<path d="M30.4424 33.6076C28.5814 33.6076 27.0859 32.1121 27.0859 30.2843C27.0859 28.4564 28.5814 26.9609 30.4091 26.9609C32.2368 26.9609 33.7323 28.4564 33.7323 30.2843C33.7323 32.1121 32.2701 33.6076 30.4424 33.6076Z" fill="black"/>
<path d="M30.3981 52.7136C29.7667 52.7136 29.1353 52.481 28.6369 51.9825C27.6731 51.0187 27.6731 49.4235 28.6369 48.4597L48.576 28.5197C49.5397 27.5559 51.1348 27.5559 52.0985 28.5197C53.0623 29.4835 53.0623 31.0788 52.0985 32.0426L32.1594 51.9825C31.6609 52.481 31.0295 52.7136 30.3981 52.7136Z" fill="black"/>
</svg>
