<svg width="81" height="81" viewBox="0 0 81 81" fill="none" xmlns="http://www.w3.org/2000/svg">
<path d="M36.2295 56.7891V63.5354C36.2295 69.2515 30.9124 73.8709 24.3657 73.8709C17.8191 73.8709 12.4688 69.2515 12.4688 63.5354V56.7891C12.4688 62.5052 17.7859 66.5596 24.3657 66.5596C30.9124 66.5596 36.2295 62.4719 36.2295 56.7891Z" stroke="black" stroke-width="4.98474" stroke-linecap="round" stroke-linejoin="round"/>
<path d="M36.2314 47.6382C36.2314 49.2999 35.7661 50.8286 34.9686 52.1579C33.0078 55.3815 28.9867 57.4088 24.3343 57.4088C19.6818 57.4088 15.6608 55.3483 13.7001 52.1579C12.9025 50.8286 12.4375 49.2999 12.4375 47.6382C12.4375 44.7802 13.7667 42.2212 15.8935 40.3602C18.0536 38.4659 21.0111 37.3359 24.301 37.3359C27.5909 37.3359 30.5486 38.4991 32.7087 40.3602C34.9021 42.188 36.2314 44.7802 36.2314 47.6382Z" stroke="black" stroke-width="4.98474" stroke-linecap="round" stroke-linejoin="round"/>
<path d="M36.2295 47.648V56.7871C36.2295 62.5032 30.9124 66.5577 24.3657 66.5577C17.8191 66.5577 12.4688 62.47 12.4688 56.7871V47.648C12.4688 41.9319 17.7859 37.3125 24.3657 37.3125C27.6557 37.3125 30.6134 38.4757 32.7734 40.3367C34.9002 42.1978 36.2295 44.79 36.2295 47.648Z" stroke="black" stroke-width="4.98474" stroke-linecap="round" stroke-linejoin="round"/>
<path d="M73.5918 37.2295V44.0758C73.5918 45.9036 72.1296 47.3988 70.2686 47.4653H63.7549C60.1659 47.4653 56.8763 44.8398 56.5772 41.2507C56.3778 39.157 57.175 37.1962 58.5708 35.8337C59.8003 34.5708 61.4955 33.8398 63.3565 33.8398H70.2686C72.1296 33.9063 73.5918 35.4016 73.5918 37.2295Z" stroke="black" stroke-width="4.98474" stroke-linecap="round" stroke-linejoin="round"/>
<path d="M7.14062 35.6499V29.0033C7.14062 19.9639 12.5906 13.6496 21.0647 12.5861C21.9287 12.4532 22.8259 12.3867 23.7564 12.3867H53.6649C54.5289 12.3867 55.3597 12.4199 56.1573 12.5529C64.731 13.5498 70.2807 19.8974 70.2807 29.0033V33.8221H63.3685C61.5075 33.8221 59.8127 34.5532 58.5832 35.8161C57.1874 37.1786 56.3899 39.1394 56.5893 41.2331C56.8883 44.8223 60.1783 47.4477 63.7673 47.4477H70.2807V52.2665C70.2807 62.2364 63.6344 68.8831 53.6649 68.8831H45.357" stroke="black" stroke-width="4.98474" stroke-linecap="round" stroke-linejoin="round"/>
</svg>
