<svg width="710" height="710" viewBox="0 0 710 710" fill="none" xmlns="http://www.w3.org/2000/svg">
<path d="M638.855 565.859H591.824V566.214H638.855V565.859Z" fill="#EBEBEB"/>
<path d="M470.332 569.719H457.992V570.074H470.332V569.719Z" fill="#EBEBEB"/>
<path d="M590.41 552.688H563.16V553.042H590.41V552.688Z" fill="#EBEBEB"/>
<path d="M135.822 555.07H74.4922V555.425H135.822V555.07Z" fill="#EBEBEB"/>
<path d="M157.465 555.07H148.477V555.425H157.465V555.07Z" fill="#EBEBEB"/>
<path d="M319.713 561.062H186.688V561.417H319.713V561.062Z" fill="#EBEBEB"/>
<path d="M338.529 479.678H64.3269C62.1765 479.678 60.1142 478.823 58.5936 477.303C57.073 475.782 56.2188 473.72 56.2188 471.569V86.1388C56.2375 84.0007 57.1 81.9565 58.6185 80.4512C60.1371 78.946 62.1888 78.1015 64.3269 78.1016H338.529C339.594 78.1016 340.648 78.3113 341.632 78.7188C342.616 79.1262 343.509 79.7235 344.262 80.4764C345.015 81.2293 345.612 82.1232 346.02 83.1069C346.427 84.0906 346.637 85.145 346.637 86.2098V471.569C346.637 472.634 346.427 473.689 346.02 474.672C345.612 475.656 345.015 476.55 344.262 477.303C343.509 478.056 342.616 478.653 341.632 479.06C340.648 479.468 339.594 479.678 338.529 479.678ZM64.3269 78.3856C62.2718 78.3893 60.3019 79.2074 58.8488 80.6606C57.3956 82.1138 56.5775 84.0836 56.5737 86.1388V471.569C56.5775 473.625 57.3956 475.594 58.8488 477.048C60.3019 478.501 62.2718 479.319 64.3269 479.323H338.529C340.584 479.319 342.554 478.501 344.007 477.048C345.46 475.594 346.278 473.625 346.282 471.569V86.1388C346.278 84.0836 345.46 82.1138 344.007 80.6606C342.554 79.2074 340.584 78.3893 338.529 78.3856H64.3269Z" fill="#EBEBEB"/>
<path d="M645.677 479.678H371.475C369.325 479.678 367.263 478.823 365.742 477.303C364.221 475.782 363.367 473.72 363.367 471.569V86.1388C363.386 84.0007 364.248 81.9565 365.767 80.4512C367.286 78.946 369.337 78.1015 371.475 78.1016H645.677C647.828 78.1016 649.89 78.9558 651.411 80.4764C652.931 81.997 653.786 84.0593 653.786 86.2098V471.569C653.786 473.72 652.931 475.782 651.411 477.303C649.89 478.823 647.828 479.678 645.677 479.678ZM371.475 78.3856C369.42 78.3893 367.45 79.2074 365.997 80.6606C364.544 82.1138 363.726 84.0836 363.722 86.1388V471.569C363.726 473.625 364.544 475.594 365.997 477.048C367.45 478.501 369.42 479.319 371.475 479.323H645.677C647.733 479.319 649.702 478.501 651.156 477.048C652.609 475.594 653.427 473.625 653.431 471.569V86.1388C653.427 84.0836 652.609 82.1138 651.156 80.6606C649.702 79.2074 647.733 78.3893 645.677 78.3856H371.475Z" fill="#EBEBEB"/>
<path d="M710 543.008H0V543.363H710V543.008Z" fill="#EBEBEB"/>
<path d="M129.047 365.128L107.35 358.426C107.036 358.312 106.772 358.091 106.605 357.802C106.438 357.513 106.378 357.174 106.435 356.846C106.493 356.517 106.665 356.219 106.92 356.004C107.176 355.789 107.499 355.671 107.832 355.671L132.853 356.991C126.946 346.725 123.452 340.306 119.476 332.269C119.344 331.965 119.323 331.624 119.415 331.306C119.508 330.987 119.709 330.711 119.984 330.526C120.259 330.34 120.59 330.257 120.92 330.29C121.25 330.323 121.558 330.471 121.791 330.707C127.13 336.714 131.603 341.584 138.831 349.267C140.535 339.327 142.523 330.168 144.994 320.98C145.058 320.604 145.269 320.268 145.58 320.047C145.892 319.826 146.279 319.738 146.655 319.802C147.032 319.866 147.368 320.077 147.589 320.388C147.81 320.7 147.898 321.086 147.834 321.463C147.17 328.865 146.928 336.299 147.11 343.729L147.791 343.97C153.793 337.116 160.093 330.532 166.691 324.218C166.957 324.01 167.288 323.903 167.625 323.917C167.962 323.931 168.283 324.064 168.531 324.293C168.779 324.522 168.937 324.831 168.977 325.166C169.017 325.501 168.937 325.84 168.75 326.121C162.369 334.212 156.476 342.676 151.1 351.468C159.677 348.23 168.301 345.092 176.972 342.053C177.299 341.959 177.649 341.986 177.958 342.129C178.267 342.271 178.514 342.52 178.655 342.829C178.796 343.139 178.822 343.489 178.726 343.816C178.631 344.142 178.422 344.424 178.137 344.609C169.148 349.707 160.259 354.918 151.384 360.314L174.26 367.599C174.576 367.713 174.842 367.937 175.009 368.229C175.176 368.52 175.234 368.862 175.172 369.193C175.111 369.524 174.934 369.822 174.674 370.034C174.413 370.247 174.085 370.36 173.749 370.354L150.248 368.934C154.891 374.372 158.115 378.107 161.878 382.324C162.09 382.583 162.203 382.909 162.199 383.243C162.194 383.578 162.072 383.9 161.853 384.153C161.634 384.406 161.332 384.574 161.001 384.626C160.671 384.679 160.332 384.613 160.046 384.44C155.317 381.302 151.157 378.519 145.107 374.5C145.732 379.328 146.258 383.02 146.897 386.74C146.932 387.074 146.848 387.41 146.66 387.688C146.471 387.966 146.19 388.168 145.866 388.259C145.543 388.349 145.197 388.321 144.892 388.181C144.587 388.041 144.341 387.797 144.199 387.493C142.622 383.474 141.188 379.484 139.371 374.173C132.54 406.833 134.301 438.542 140.904 471.032L132.725 469.612C127.904 437.699 129.205 405.159 136.559 373.733C132.455 377.993 129.459 381.16 126.619 384.369C126.378 384.605 126.061 384.748 125.725 384.771C125.389 384.795 125.055 384.698 124.784 384.498C124.512 384.299 124.32 384.009 124.243 383.681C124.166 383.353 124.208 383.008 124.361 382.708C126.292 379.498 128.38 376.247 131.191 372.029C123.878 373.634 118.88 374.741 113.356 375.991C113.025 376.051 112.683 375.991 112.392 375.822C112.1 375.653 111.879 375.386 111.766 375.068C111.653 374.751 111.657 374.404 111.777 374.089C111.896 373.774 112.124 373.512 112.419 373.35C117.375 370.694 122.118 368.422 129.047 365.128Z" fill="#EBEBEB"/>
<path d="M117.504 376.419L134.175 367.586C134.592 367.375 134.916 367.016 135.085 366.58C135.253 366.143 135.253 365.66 135.085 365.223C134.917 364.786 134.593 364.428 134.175 364.216C133.758 364.005 133.277 363.956 132.826 364.079L112.25 369.205C115.601 359.549 117.717 353.046 119.79 345.889C119.917 345.448 119.879 344.976 119.684 344.561C119.488 344.145 119.148 343.816 118.727 343.633C118.306 343.451 117.833 343.427 117.396 343.568C116.959 343.709 116.589 344.004 116.354 344.398C112.974 350.078 109.751 355.19 104.994 362.73C102.154 355.034 99.1575 347.891 95.9199 340.876C95.7166 340.457 95.3659 340.129 94.935 339.953C94.5042 339.777 94.0235 339.766 93.5853 339.923C93.1471 340.079 92.7821 340.392 92.5604 340.801C92.3387 341.211 92.2759 341.687 92.3841 342.14C93.8041 347.706 94.9827 353.315 95.8915 358.811L95.2667 359.18C89.8707 354.977 84.3516 350.949 78.7095 347.096C78.3165 346.824 77.8351 346.711 77.3623 346.78C76.8894 346.849 76.4602 347.094 76.1613 347.467C75.8623 347.84 75.7158 348.312 75.7512 348.789C75.7867 349.265 76.0014 349.711 76.3523 350.035C82.2973 355.478 87.9773 361.187 93.3923 367.16C86.0935 365.901 78.7805 364.699 71.4533 363.553C70.9902 363.489 70.5198 363.599 70.1329 363.861C69.7461 364.124 69.4703 364.52 69.359 364.974C69.2477 365.429 69.3088 365.908 69.5304 366.319C69.752 366.731 70.1183 367.046 70.5587 367.203C78.6527 370.043 86.6899 372.883 94.6987 375.908L76.9629 385.507C76.5278 385.714 76.1884 386.079 76.0141 386.529C75.8398 386.978 75.8437 387.477 76.0252 387.923C76.2066 388.369 76.5518 388.73 76.9901 388.93C77.4284 389.13 77.9267 389.155 78.3829 389L97.4819 384.158C94.6419 389 92.5971 392.678 90.3819 396.341C90.1395 396.736 90.0509 397.207 90.1329 397.663C90.215 398.119 90.4619 398.529 90.8268 398.815C91.1916 399.101 91.6489 399.243 92.1115 399.214C92.5741 399.184 93.0097 398.986 93.3355 398.656L103.659 388.56C103.829 391.4 103.971 393.927 104.056 396.256C104.075 396.722 104.266 397.165 104.592 397.499C104.918 397.833 105.356 398.035 105.822 398.065C106.288 398.095 106.748 397.951 107.115 397.662C107.481 397.372 107.727 396.958 107.805 396.498C108.274 393.658 108.728 390.704 109.225 387.168C122.005 417.996 126.265 449.449 125.782 482.606L133.55 479.624C132.329 447.371 124.975 415.646 111.881 386.146C114.834 388.219 117.305 389.98 119.563 391.641C119.939 391.973 120.432 392.141 120.933 392.109C121.434 392.077 121.901 391.847 122.232 391.471C122.564 391.094 122.732 390.601 122.7 390.101C122.668 389.6 122.439 389.133 122.062 388.801C120.528 387.168 118.839 385.436 116.893 383.448C122.573 383.604 126.918 383.732 131.093 383.874C131.553 383.884 132.001 383.726 132.352 383.43C132.704 383.134 132.936 382.72 133.004 382.265C133.072 381.81 132.971 381.346 132.722 380.96C132.472 380.574 132.09 380.292 131.647 380.168C127.501 379.046 123.198 377.895 117.504 376.419Z" fill="#F0F0F0"/>
<path d="M146.944 394.338L134.504 387.735C134.219 387.58 134 387.327 133.887 387.023C133.775 386.719 133.777 386.384 133.894 386.081C134.01 385.778 134.233 385.528 134.521 385.378C134.808 385.228 135.141 385.187 135.456 385.264L150.778 389.084C148.278 381.899 146.731 377.127 145.197 371.788C145.043 371.459 145.025 371.081 145.149 370.739C145.273 370.397 145.528 370.118 145.857 369.964C146.187 369.809 146.564 369.792 146.906 369.916C147.249 370.04 147.528 370.294 147.682 370.624C150.21 374.799 152.581 378.633 156.117 384.242C158.261 378.491 160.476 373.166 162.904 367.926C163.048 367.629 163.296 367.396 163.601 367.271C163.906 367.147 164.246 367.139 164.556 367.25C164.866 367.361 165.124 367.583 165.281 367.873C165.437 368.163 165.481 368.5 165.404 368.82C164.31 373.08 163.416 377.34 162.734 381.473L163.132 381.7C167.221 378.51 171.415 375.457 175.713 372.541C175.851 372.433 176.009 372.353 176.178 372.306C176.346 372.259 176.523 372.245 176.697 372.266C176.871 372.287 177.039 372.343 177.192 372.429C177.345 372.515 177.479 372.63 177.587 372.768C177.695 372.906 177.775 373.064 177.822 373.233C177.869 373.402 177.883 373.578 177.862 373.752C177.841 373.926 177.785 374.095 177.699 374.247C177.613 374.4 177.498 374.534 177.36 374.642C172.882 378.704 168.622 382.964 164.58 387.422C170.033 386.476 175.504 385.572 180.995 384.71C181.327 384.654 181.668 384.725 181.95 384.91C182.232 385.095 182.433 385.379 182.514 385.706C182.595 386.033 182.549 386.378 182.386 386.673C182.223 386.968 181.954 387.19 181.634 387.295C175.604 389.387 169.588 391.555 163.586 393.798L176.792 400.898C177.082 401.051 177.306 401.306 177.421 401.613C177.535 401.921 177.532 402.259 177.413 402.565C177.294 402.871 177.066 403.122 176.773 403.27C176.48 403.418 176.143 403.453 175.826 403.369L161.626 399.762C163.714 403.412 165.29 406.138 166.923 408.907C167.08 409.185 167.133 409.509 167.072 409.823C167.01 410.136 166.839 410.417 166.588 410.614C166.337 410.812 166.024 410.913 165.705 410.899C165.386 410.886 165.083 410.758 164.85 410.54L157.21 403.028C157.068 405.286 156.969 407.217 156.898 409.021C156.892 409.356 156.76 409.677 156.529 409.919C156.298 410.162 155.983 410.309 155.649 410.33C155.314 410.352 154.984 410.246 154.723 410.035C154.462 409.824 154.291 409.523 154.242 409.191C153.887 407.047 153.532 404.746 153.135 402.006C143.791 424.484 140.752 447.446 141.065 471.586L135.385 469.413C136.276 445.897 141.634 422.765 151.175 401.253C148.889 402.872 146.915 404.235 145.24 405.513C144.973 405.725 144.635 405.827 144.296 405.798C143.956 405.768 143.641 405.611 143.414 405.357C143.187 405.103 143.066 404.771 143.076 404.431C143.085 404.09 143.224 403.766 143.465 403.525C144.672 402.247 145.978 400.884 147.526 399.265L136.791 399.578C136.461 399.591 136.138 399.481 135.885 399.271C135.631 399.06 135.464 398.763 135.417 398.437C135.369 398.11 135.444 397.778 135.627 397.504C135.81 397.229 136.088 397.032 136.407 396.951C139.432 396.297 142.641 395.445 146.944 394.338Z" fill="#F5F5F5"/>
<path d="M111.882 542.771H154.227C155.653 542.774 157.027 542.231 158.067 541.255C159.107 540.278 159.735 538.941 159.822 537.517L164.309 464.472C164.508 461.249 101.602 461.249 101.829 464.472L106.316 537.517C106.403 538.936 107.026 540.269 108.06 541.245C109.094 542.221 110.461 542.766 111.882 542.771Z" fill="#F0F0F0"/>
<path d="M109.342 373.995C108.791 373.541 108.363 372.956 108.098 372.293C107.832 371.631 107.738 370.912 107.822 370.203L108.774 362.109L106.601 365.872C106.3 366.401 105.89 366.859 105.398 367.216C104.905 367.573 104.342 367.82 103.746 367.941C103.15 368.062 102.535 368.054 101.943 367.918C101.35 367.781 100.794 367.52 100.311 367.15L96.0505 363.941L99.9271 370.203C100.471 371.071 100.684 372.105 100.528 373.117C100.371 374.129 99.8555 375.05 99.0751 375.713L94.0625 379.973L98.9757 378.851C100.017 378.607 101.112 378.764 102.044 379.29C102.975 379.816 103.674 380.673 104.002 381.691L105.692 386.86L106.772 381.365C106.889 380.783 107.126 380.231 107.468 379.747C107.811 379.262 108.251 378.854 108.76 378.549C109.27 378.244 109.837 378.049 110.426 377.976C111.016 377.904 111.614 377.955 112.182 378.127L115.49 379.093L109.342 373.995Z" fill="#E6E6E6"/>
<path d="M137.556 360.058C137.96 359.728 138.273 359.3 138.467 358.816C138.661 358.332 138.729 357.806 138.664 357.289L137.968 351.367L139.558 354.122C139.777 354.507 140.076 354.841 140.435 355.102C140.794 355.362 141.205 355.543 141.639 355.631C142.073 355.72 142.522 355.715 142.954 355.616C143.386 355.518 143.792 355.328 144.145 355.059L147.255 352.716L144.415 357.289C144.022 357.923 143.869 358.676 143.984 359.413C144.098 360.151 144.473 360.822 145.039 361.307L148.703 364.46L145.11 363.636C144.351 363.463 143.555 363.579 142.877 363.963C142.199 364.346 141.689 364.969 141.447 365.709L140.211 369.486L139.416 365.468C139.331 365.042 139.159 364.638 138.909 364.283C138.66 363.927 138.34 363.627 137.969 363.402C137.598 363.176 137.184 363.03 136.754 362.972C136.324 362.915 135.886 362.948 135.469 363.068L133.055 363.778L137.556 360.058Z" fill="#F5F5F5"/>
<path d="M154.3 393.958C154.587 393.715 154.81 393.405 154.948 393.056C155.087 392.707 155.138 392.329 155.095 391.955L154.598 387.695L155.734 389.669C155.893 389.944 156.109 390.182 156.367 390.368C156.625 390.553 156.92 390.682 157.231 390.745C157.543 390.808 157.864 390.804 158.174 390.734C158.484 390.663 158.775 390.528 159.029 390.337L161.258 388.647L159.228 391.927C158.957 392.377 158.853 392.908 158.933 393.427C159.014 393.946 159.274 394.42 159.668 394.767L162.295 397.025L159.725 396.428C159.187 396.301 158.621 396.375 158.134 396.637C157.647 396.898 157.273 397.329 157.083 397.848L156.203 400.561L155.635 397.721C155.575 397.414 155.451 397.123 155.272 396.867C155.093 396.611 154.862 396.395 154.595 396.234C154.327 396.072 154.029 395.968 153.719 395.928C153.409 395.888 153.094 395.913 152.795 396.002L151.062 396.514L154.3 393.958Z" fill="#E6E6E6"/>
<path d="M546.188 192.633H509.027C507.992 192.633 507.152 193.472 507.152 194.507V201.735C507.152 202.77 507.992 203.609 509.027 203.609H546.188C547.223 203.609 548.063 202.77 548.063 201.735V194.507C548.063 193.472 547.223 192.633 546.188 192.633Z" fill="#F5F5F5"/>
<path d="M533.692 206.242H496.531C495.495 206.242 494.656 207.081 494.656 208.117V215.344C494.656 216.38 495.495 217.219 496.531 217.219H533.692C534.727 217.219 535.566 216.38 535.566 215.344V208.117C535.566 207.081 534.727 206.242 533.692 206.242Z" fill="#F5F5F5"/>
<path d="M576.505 206.242H539.343C538.308 206.242 537.469 207.081 537.469 208.117V215.344C537.469 216.38 538.308 217.219 539.343 217.219H576.505C577.54 217.219 578.379 216.38 578.379 215.344V208.117C578.379 207.081 577.54 206.242 576.505 206.242Z" fill="#F0F0F0"/>
<path d="M596.372 105.273H556.726C555.691 105.273 554.852 106.113 554.852 107.148V115.043C554.852 116.078 555.691 116.917 556.726 116.917H596.372C597.408 116.917 598.247 116.078 598.247 115.043V107.148C598.247 106.113 597.408 105.273 596.372 105.273Z" fill="#F5F5F5"/>
<path d="M596.372 134.148H556.726C555.691 134.148 554.852 134.988 554.852 136.023V143.918C554.852 144.953 555.691 145.792 556.726 145.792H596.372C597.408 145.792 598.247 144.953 598.247 143.918V136.023C598.247 134.988 597.408 134.148 596.372 134.148Z" fill="#F5F5F5"/>
<path d="M583.122 119.695H543.476C542.441 119.695 541.602 120.535 541.602 121.57V129.465C541.602 130.5 542.441 131.339 543.476 131.339H583.122C584.158 131.339 584.997 130.5 584.997 129.465V121.57C584.997 120.535 584.158 119.695 583.122 119.695Z" fill="#F5F5F5"/>
<path d="M628.536 119.695H588.89C587.855 119.695 587.016 120.535 587.016 121.57V129.465C587.016 130.5 587.855 131.339 588.89 131.339H628.536C629.572 131.339 630.411 130.5 630.411 129.465V121.57C630.411 120.535 629.572 119.695 628.536 119.695Z" fill="#F0F0F0"/>
<path d="M310.883 458.953L583.594 458.953V451.115L310.883 451.115V458.953Z" fill="#F5F5F5"/>
<path d="M581.56 458.953H642.648V451.115H581.56V458.953Z" fill="#EBEBEB"/>
<path d="M339.225 478.01V458.953H326.516L339.225 478.01Z" fill="#E0E0E0"/>
<path d="M332.873 478.01L320.164 458.953H326.511L339.22 478.01H332.873Z" fill="#FAFAFA"/>
<path d="M632.693 478.01V458.953H619.984L632.693 478.01Z" fill="#E0E0E0"/>
<path d="M626.335 478.01L613.641 458.953H619.988L632.697 478.01H626.335Z" fill="#FAFAFA"/>
<path d="M598.998 452.176H606.183C606.949 452.176 607.706 452.022 608.411 451.723C609.115 451.423 609.752 450.984 610.282 450.432C610.813 449.881 611.226 449.227 611.498 448.512C611.77 447.796 611.894 447.033 611.863 446.268L610.955 419.203H594.199L593.29 446.268C593.259 447.036 593.384 447.801 593.658 448.518C593.931 449.236 594.347 449.891 594.881 450.443C595.414 450.995 596.054 451.433 596.762 451.731C597.47 452.029 598.23 452.18 598.998 452.176Z" fill="#F0F0F0"/>
<path d="M568.532 435.024C574.754 428.802 574.754 418.714 568.532 412.492C562.31 406.27 552.222 406.27 546 412.492C539.778 418.714 539.778 428.802 546 435.024C552.222 441.246 562.31 441.246 568.532 435.024Z" fill="#F0F0F0"/>
<path d="M556.156 451.927H558.371V441.376H557.264C554.91 441.443 552.567 441.038 550.373 440.183C548.18 439.329 546.179 438.043 544.491 436.402C542.803 434.761 541.461 432.798 540.544 430.629C539.628 428.461 539.156 426.13 539.156 423.776C539.156 421.421 539.628 419.091 540.544 416.922C541.461 414.753 542.803 412.79 544.491 411.149C546.179 409.508 548.18 408.223 550.373 407.368C552.567 406.514 554.91 406.108 557.264 406.175V403.945C552.272 404.204 547.562 406.334 544.07 409.91C540.578 413.487 538.562 418.247 538.422 423.243C538.282 428.239 540.03 433.105 543.316 436.871C546.603 440.636 551.187 443.026 556.156 443.563V451.927Z" fill="#EBEBEB"/>
<path d="M547.907 452.174H566.85C566.85 451.044 566.401 449.961 565.602 449.162C564.803 448.363 563.72 447.914 562.59 447.914H552.139C551.009 447.914 549.926 448.363 549.127 449.162C548.328 449.961 547.879 451.044 547.879 452.174H547.907Z" fill="#EBEBEB"/>
<path d="M600.077 452.17L585.11 437.203L570.129 452.17H600.077Z" fill="#F5F5F5"/>
<path d="M585.113 437.203L600.08 452.17H585.113V437.203Z" fill="#E6E6E6"/>
<path d="M480.755 432.594C480.826 434.014 480.868 435.15 480.868 435.902C480.868 439.001 480.193 442.062 478.888 444.873C477.583 447.684 475.681 450.176 473.314 452.176H447.001C444.642 450.179 442.746 447.693 441.444 444.891C440.142 442.088 439.465 439.035 439.461 435.945C439.461 435.192 439.461 434.056 439.575 432.636L480.755 432.594Z" fill="#F5F5F5"/>
<path d="M477.117 444.242C477.117 445.751 477.445 447.242 478.081 448.61C478.716 449.979 479.642 451.192 480.795 452.166H493.575C495.044 450.915 496.139 449.284 496.742 447.451C496.995 447.497 497.251 447.521 497.508 447.522C500.079 447.522 502.947 445.478 502.947 442.751C502.947 440.025 501.3 437.98 498.843 437.98C498.274 437.985 497.709 438.076 497.168 438.25V438.065C497.16 437.405 496.892 436.774 496.421 436.311C495.95 435.848 495.315 435.591 494.654 435.594H479.673C479.343 435.587 479.014 435.645 478.706 435.765C478.398 435.886 478.117 436.066 477.879 436.296C477.641 436.526 477.452 436.801 477.321 437.104C477.19 437.408 477.121 437.735 477.117 438.065C477.117 440.919 477.117 443.248 477.117 444.242ZM497.139 445.904C497.241 445.356 497.293 444.8 497.295 444.242C497.295 443.475 497.295 441.928 497.295 439.982C497.812 439.741 498.373 439.611 498.943 439.599C501.271 439.599 501.456 442.027 501.456 442.78C501.456 444.54 499.354 445.96 497.608 445.96L497.139 445.904Z" fill="#EBEBEB"/>
<path d="M358.463 452.171L360.551 428.188H330.148L328.047 452.171H358.463Z" fill="#F0F0F0"/>
<path d="M358.461 452.171L360.548 428.188H362.196L360.094 452.171H358.461Z" fill="#E0E0E0"/>
<path d="M355.57 449.741L357.246 430.656H333.035L331.359 449.741H355.57Z" fill="#FAFAFA"/>
<path d="M353.719 448.15L355.111 432.203H334.89L333.484 448.15H353.719Z" fill="#EBEBEB"/>
<path d="M392.739 452.175H362.195L365.575 413.438H396.133L392.739 452.175Z" fill="#F0F0F0"/>
<path d="M392.742 452.175H394.205L397.599 413.438H396.136L392.742 452.175Z" fill="#E0E0E0"/>
<path d="M389.973 448.225H365.648L368.346 417.383H392.671L389.973 448.225Z" fill="#E0E0E0"/>
<path d="M388.203 445.681H367.883L370.141 419.922H390.461L388.203 445.681Z" fill="#FAFAFA"/>
<path d="M373.528 433.903L375.526 435.901C377.289 437.664 380.148 437.664 381.912 435.901L383.91 433.903C385.673 432.139 385.673 429.28 383.91 427.517L381.912 425.518C380.148 423.755 377.289 423.755 375.526 425.518L373.528 427.517C371.764 429.28 371.764 432.139 373.528 433.903Z" fill="#EBEBEB"/>
<path d="M372.55 441.3L373.534 442.284C375.297 444.047 378.156 444.047 379.92 442.284L380.904 441.3C382.667 439.536 382.667 436.677 380.904 434.913L379.92 433.929C378.156 432.166 375.297 432.166 373.534 433.93L372.55 434.913C370.786 436.677 370.786 439.536 372.55 441.3Z" fill="#E6E6E6"/>
<path d="M98.5351 175.719H141.93C142.965 175.719 143.805 174.88 143.805 173.844V164.941C143.805 163.906 142.965 163.067 141.93 163.067H98.5351C97.4999 163.067 96.6607 163.906 96.6607 164.941V173.844C96.6607 174.88 97.4999 175.719 98.5351 175.719Z" fill="#F5F5F5"/>
<path d="M120.543 160.039H163.938C164.973 160.039 165.812 159.2 165.812 158.165V149.261C165.812 148.226 164.973 147.387 163.938 147.387H120.543C119.508 147.387 118.669 148.226 118.669 149.261V158.165C118.669 159.2 119.508 160.039 120.543 160.039Z" fill="#F5F5F5"/>
<path d="M71.2148 160.039H114.61C115.645 160.039 116.484 159.2 116.484 158.165V149.261C116.484 148.226 115.645 147.387 114.61 147.387H71.2148C70.1796 147.387 69.3404 148.226 69.3404 149.261V158.165C69.3404 159.2 70.1796 160.039 71.2148 160.039Z" fill="#F0F0F0"/>
<path d="M354.996 601.664C507.053 601.664 630.32 594.468 630.32 585.59C630.32 576.712 507.053 569.516 354.996 569.516C202.939 569.516 79.6719 576.712 79.6719 585.59C79.6719 594.468 202.939 601.664 354.996 601.664Z" fill="#F5F5F5"/>
<path d="M557.689 115.719H474.619C460.008 115.719 448.164 127.563 448.164 142.173V367.641C448.164 382.251 460.008 394.096 474.619 394.096H557.689C572.299 394.096 584.143 382.251 584.143 367.641V142.173C584.143 127.563 572.299 115.719 557.689 115.719Z" fill="#2F364B"/>
<path opacity="0.3" d="M557.987 115.719H474.32C459.875 115.719 448.164 127.429 448.164 141.875V367.939C448.164 382.385 459.875 394.096 474.32 394.096H557.987C572.433 394.096 584.143 382.385 584.143 367.939V141.875C584.143 127.429 572.433 115.719 557.987 115.719Z" fill="black"/>
<path d="M584.143 129.379V184.603H448.164V129.379C448.164 125.756 449.603 122.282 452.165 119.72C454.727 117.158 458.202 115.719 461.825 115.719H570.483C574.106 115.719 577.58 117.158 580.142 119.72C582.704 122.282 584.143 125.756 584.143 129.379Z" fill="#2F364B"/>
<path d="M486.635 145.446C486.635 148.172 484.619 149.848 481.367 149.848H478.527V153.37H476.227V141.016H481.381C484.619 141.058 486.635 142.72 486.635 145.446ZM484.321 145.446C484.321 143.898 483.284 142.989 481.268 142.989H478.541V147.903H481.225C483.284 147.903 484.321 147.008 484.321 145.446Z" fill="white"/>
<path d="M494.16 143.872V145.974C493.99 145.955 493.819 145.955 493.649 145.974C493.273 145.947 492.896 146.002 492.545 146.137C492.193 146.272 491.875 146.482 491.614 146.753C491.352 147.024 491.154 147.349 491.032 147.705C490.91 148.061 490.868 148.44 490.908 148.814V153.358H488.707V143.929H490.809V145.349C491.19 144.832 491.699 144.423 492.287 144.164C492.875 143.905 493.521 143.804 494.16 143.872Z" fill="white"/>
<path d="M504.695 149.401H497.297C497.438 150.088 497.827 150.698 498.391 151.115C498.954 151.532 499.652 151.726 500.35 151.659C500.826 151.676 501.3 151.594 501.743 151.418C502.185 151.242 502.586 150.976 502.92 150.636L504.099 152.056C503.384 152.764 502.481 153.254 501.498 153.468C500.514 153.681 499.491 153.611 498.546 153.263C497.601 152.916 496.775 152.307 496.164 151.507C495.553 150.708 495.183 149.75 495.096 148.748C495.076 148.105 495.189 147.466 495.427 146.869C495.665 146.272 496.024 145.731 496.482 145.279C496.939 144.827 497.484 144.474 498.084 144.243C498.683 144.011 499.324 143.906 499.967 143.934C500.608 143.909 501.248 144.019 501.845 144.256C502.442 144.493 502.982 144.853 503.432 145.312C503.881 145.771 504.23 146.318 504.455 146.92C504.679 147.522 504.776 148.164 504.738 148.805C504.738 148.918 504.709 149.188 504.695 149.401ZM497.283 147.981H502.679C502.611 147.33 502.297 146.729 501.8 146.301C501.304 145.874 500.664 145.652 500.009 145.681C499.354 145.646 498.71 145.859 498.205 146.277C497.7 146.696 497.371 147.289 497.283 147.938V147.981Z" fill="white"/>
<path d="M522.628 148.019V153.372H520.413V148.246C520.413 146.57 519.632 145.761 518.297 145.761C516.962 145.761 515.84 146.712 515.84 148.601V153.372H513.639V148.246C513.639 146.57 512.858 145.761 511.509 145.761C510.16 145.761 509.053 146.712 509.053 148.601V153.372H506.852V143.943H508.953V145.15C509.339 144.716 509.818 144.373 510.353 144.147C510.889 143.921 511.468 143.817 512.049 143.844C512.667 143.802 513.286 143.925 513.842 144.199C514.398 144.474 514.872 144.89 515.215 145.406C515.648 144.895 516.192 144.489 516.804 144.219C517.416 143.948 518.082 143.82 518.751 143.844C521.037 143.886 522.628 145.164 522.628 148.019Z" fill="white"/>
<path d="M525.145 141.09C525.17 140.731 525.33 140.395 525.594 140.15C525.858 139.904 526.205 139.769 526.565 139.769C526.743 139.756 526.922 139.779 527.091 139.836C527.26 139.894 527.415 139.985 527.548 140.105C527.681 140.224 527.788 140.369 527.863 140.531C527.938 140.693 527.979 140.869 527.985 141.047C527.985 141.424 527.835 141.785 527.569 142.052C527.302 142.318 526.941 142.467 526.565 142.467C526.188 142.467 525.827 142.318 525.56 142.052C525.294 141.785 525.145 141.424 525.145 141.047V141.09ZM525.457 143.93H527.658V153.359H525.4L525.457 143.93Z" fill="white"/>
<path d="M539.683 143.972V153.358H537.581V152.166C537.203 152.596 536.735 152.937 536.209 153.166C535.684 153.394 535.115 153.503 534.542 153.486C533.986 153.539 533.425 153.467 532.9 153.274C532.375 153.081 531.901 152.773 531.511 152.373C531.121 151.972 530.826 151.489 530.648 150.959C530.47 150.429 530.413 149.866 530.481 149.311V143.93H532.682V149.098C532.682 150.817 533.506 151.626 534.897 151.626C535.263 151.642 535.628 151.578 535.965 151.437C536.303 151.296 536.605 151.082 536.851 150.811C537.096 150.54 537.279 150.218 537.386 149.867C537.492 149.517 537.52 149.148 537.468 148.786V144.015L539.683 143.972Z" fill="white"/>
<path d="M558.34 148.019V153.372H556.139V148.246C556.139 146.57 555.358 145.761 554.023 145.761C552.689 145.761 551.567 146.712 551.567 148.601V153.372H549.352V148.246C549.352 146.57 548.585 145.761 547.236 145.761C545.887 145.761 544.779 146.712 544.779 148.601V153.372H542.578V143.943H544.68V145.15C545.066 144.716 545.544 144.373 546.08 144.147C546.615 143.921 547.195 143.817 547.775 143.844C548.394 143.802 549.013 143.925 549.569 144.199C550.125 144.474 550.598 144.89 550.942 145.406C551.375 144.895 551.918 144.489 552.53 144.219C553.143 143.948 553.809 143.82 554.478 143.844C556.764 143.886 558.34 145.164 558.34 148.019Z" fill="white"/>
<path d="M544.541 350.305H487.77C480.053 350.305 473.797 356.561 473.797 364.277V365.342C473.797 373.059 480.053 379.315 487.77 379.315H544.541C552.258 379.315 558.514 373.059 558.514 365.342V364.277C558.514 356.561 552.258 350.305 544.541 350.305Z" fill="#2F364B"/>
<path d="M494.158 367.03C494.158 369.671 492.042 371.432 488.734 371.701L488.293 373.888H486.305L486.746 371.701C485.12 371.602 483.548 371.078 482.188 370.182L483.508 367.725C484.613 368.516 485.905 369.006 487.257 369.145L487.938 365.794C486.092 365.24 484.062 364.502 484.062 362.102C484.062 359.461 486.235 357.672 489.6 357.445L490.04 355.258H492.028L491.588 357.459C492.874 357.56 494.121 357.948 495.237 358.595L494.03 361.051C493.143 360.475 492.13 360.12 491.077 360.015L490.381 363.508C492.213 364.033 494.158 364.743 494.158 367.03ZM488.478 362.94L489.046 360.1C487.924 360.313 487.285 360.924 487.271 361.69C487.257 362.457 487.796 362.642 488.478 362.94ZM490.935 367.541C490.935 366.973 490.48 366.604 489.785 366.348L489.245 369.074C490.353 368.847 490.963 368.293 490.963 367.541H490.935Z" fill="white"/>
<path d="M549.777 290.945H479.586V293.785H549.777V290.945Z" fill="#2F364B"/>
<path d="M549.777 244.32H479.586V247.16H549.777V244.32Z" fill="#2F364B"/>
<path d="M549.777 199.367H479.586V202.207H549.777V199.367Z" fill="#2F364B"/>
<path d="M522.757 231.776C527.526 227.007 527.526 219.275 522.757 214.505C517.988 209.736 510.256 209.736 505.487 214.505C500.718 219.275 500.718 227.007 505.487 231.776C510.256 236.545 517.988 236.545 522.757 231.776Z" fill="#2F364B"/>
<path d="M522.853 220.499L515.838 227.528L512.558 230.808L509.277 227.528L512.558 224.248L519.572 217.219L522.853 220.499Z" fill="white"/>
<path d="M515.84 227.536L512.56 230.816L505.602 223.858L508.882 220.578L512.56 224.256L515.84 227.536Z" fill="white"/>
<path d="M514.122 280.416C520.867 280.416 526.334 274.949 526.334 268.204C526.334 261.46 520.867 255.992 514.122 255.992C507.378 255.992 501.91 261.46 501.91 268.204C501.91 274.949 507.378 280.416 514.122 280.416Z" fill="#2F364B"/>
<path d="M522.853 265.554L515.838 272.583L512.558 275.863L509.277 272.583L512.558 269.302L519.572 262.273L522.853 265.554Z" fill="white"/>
<path d="M515.84 272.583L512.56 275.863L505.602 268.905L508.882 265.625L512.56 269.303L515.84 272.583Z" fill="white"/>
<path d="M514.122 328.736C520.867 328.736 526.334 323.269 526.334 316.524C526.334 309.78 520.867 304.312 514.122 304.312C507.378 304.312 501.91 309.78 501.91 316.524C501.91 323.269 507.378 328.736 514.122 328.736Z" fill="#2F364B"/>
<path d="M522.853 313.882L515.838 320.911L512.558 324.191L509.277 320.911L512.558 317.631L519.572 310.602L522.853 313.882Z" fill="white"/>
<path d="M515.84 320.911L512.56 324.191L505.602 317.233L508.882 313.953L512.56 317.631L515.84 320.911Z" fill="white"/>
<path d="M498.12 165.031L500.406 168.681L504.581 169.717L501.812 173.026L502.11 177.328L498.12 175.71L494.115 177.328L494.414 173.026L491.645 169.717L495.834 168.681L498.12 165.031Z" fill="white"/>
<path d="M514.125 165.031L516.411 168.681L520.6 169.717L517.831 173.026L518.129 177.328L514.125 175.71L510.135 177.328L510.433 173.026L507.664 169.717L511.839 168.681L514.125 165.031Z" fill="white"/>
<path d="M530.139 165.031L532.411 168.681L536.6 169.717L533.831 173.026L534.129 177.328L530.139 175.71L526.135 177.328L526.433 173.026L523.664 169.717L527.853 168.681L530.139 165.031Z" fill="white"/>
<path d="M397.923 99.875H314.853C300.243 99.875 288.398 111.719 288.398 126.33V351.797C288.398 366.408 300.243 378.252 314.853 378.252H397.923C412.534 378.252 424.378 366.408 424.378 351.797V126.33C424.378 111.719 412.534 99.875 397.923 99.875Z" fill="#2F364B"/>
<path opacity="0.5" d="M397.043 99.875H315.733C308.484 99.875 301.531 102.755 296.405 107.881C291.278 113.008 288.398 119.96 288.398 127.21V350.917C288.398 354.508 289.106 358.063 290.481 361.381C291.855 364.698 293.87 367.712 296.41 370.251C298.949 372.789 301.965 374.802 305.283 376.175C308.601 377.548 312.157 378.254 315.748 378.252H397.043C400.633 378.254 404.19 377.548 407.508 376.175C410.826 374.802 413.841 372.789 416.381 370.251C418.92 367.712 420.935 364.698 422.31 361.381C423.684 358.063 424.392 354.508 424.392 350.917V127.21C424.392 123.619 423.684 120.063 422.31 116.746C420.935 113.429 418.92 110.415 416.381 107.876C413.841 105.338 410.826 103.325 407.508 101.952C404.19 100.579 400.633 99.8731 397.043 99.875Z" fill="white"/>
<path d="M424.392 113.598V168.808H288.398V113.598C288.398 109.975 289.838 106.5 292.399 103.939C294.961 101.377 298.436 99.9375 302.059 99.9375H410.717C414.341 99.9375 417.818 101.376 420.382 103.938C422.946 106.499 424.388 109.974 424.392 113.598Z" fill="#2F364B"/>
<path d="M316.445 136.31L317.241 134.535C318.409 135.438 319.839 135.937 321.316 135.955C323.233 135.955 324.057 135.274 324.057 134.351C324.057 131.695 316.701 133.442 316.701 128.841C316.701 126.853 318.291 125.149 321.685 125.149C323.132 125.132 324.555 125.51 325.803 126.242L325.079 128.032C324.047 127.418 322.872 127.085 321.671 127.066C319.754 127.066 318.987 127.804 318.987 128.742C318.987 131.369 326.314 129.65 326.314 134.194C326.314 136.168 324.71 137.872 321.316 137.872C319.565 137.902 317.853 137.353 316.445 136.31Z" fill="white"/>
<path d="M334.055 137.044C333.433 137.482 332.685 137.707 331.925 137.683C331.488 137.751 331.042 137.716 330.622 137.581C330.201 137.447 329.818 137.216 329.502 136.907C329.186 136.598 328.947 136.22 328.803 135.803C328.659 135.385 328.615 134.94 328.673 134.502V129.972H327.125V128.197H328.673V126.039H330.86V128.197H333.387V129.972H330.86V134.445C330.86 135.368 331.314 135.865 332.166 135.865C332.608 135.874 333.041 135.739 333.401 135.482L334.055 137.044Z" fill="white"/>
<path d="M343.764 132.056V137.579H341.677V136.429C341.331 136.876 340.877 137.228 340.358 137.451C339.839 137.675 339.272 137.763 338.709 137.707C336.551 137.707 335.188 136.529 335.188 134.867C335.188 133.206 336.252 132.027 339.107 132.027H341.549V131.885C341.549 130.607 340.768 129.84 339.206 129.84C338.182 129.834 337.185 130.163 336.366 130.778L335.471 129.216C336.642 128.408 338.041 128 339.462 128.051C342.216 128.023 343.764 129.315 343.764 132.056ZM341.549 134.64V133.476H339.277C337.772 133.476 337.36 134.029 337.36 134.725C337.36 135.421 338.042 136.032 339.164 136.032C339.659 136.069 340.154 135.953 340.581 135.699C341.008 135.445 341.346 135.065 341.549 134.612V134.64Z" fill="white"/>
<path d="M355.881 132.151V137.547H353.665V132.435C353.665 130.759 352.842 129.936 351.422 129.936C351.053 129.916 350.684 129.977 350.342 130.116C350 130.255 349.692 130.468 349.441 130.739C349.19 131.01 349.002 131.333 348.891 131.685C348.779 132.037 348.746 132.41 348.795 132.776V137.533H346.594V128.118H348.695V129.339C349.103 128.893 349.605 128.543 350.165 128.314C350.725 128.086 351.329 127.985 351.933 128.019C352.478 127.977 353.026 128.056 353.537 128.252C354.047 128.448 354.508 128.754 354.886 129.149C355.264 129.545 355.549 130.019 355.721 130.538C355.893 131.057 355.947 131.608 355.881 132.151Z" fill="white"/>
<path d="M368.005 124.458V137.55H365.89V136.315C365.504 136.759 365.022 137.11 364.481 137.341C363.94 137.573 363.353 137.678 362.765 137.65C361.485 137.65 360.257 137.141 359.352 136.236C358.446 135.33 357.938 134.102 357.938 132.822C357.938 131.541 358.446 130.313 359.352 129.408C360.257 128.503 361.485 127.994 362.765 127.994C363.334 127.968 363.901 128.067 364.426 128.286C364.952 128.504 365.422 128.836 365.804 129.258V124.43L368.005 124.458ZM365.833 132.836C365.81 132.28 365.625 131.742 365.3 131.29C364.975 130.839 364.524 130.492 364.003 130.295C363.483 130.097 362.915 130.057 362.372 130.179C361.829 130.301 361.334 130.58 360.948 130.981C360.562 131.383 360.302 131.889 360.202 132.436C360.101 132.984 360.164 133.549 360.381 134.061C360.599 134.573 360.963 135.011 361.427 135.318C361.892 135.625 362.436 135.789 362.993 135.79C363.379 135.803 363.764 135.734 364.122 135.589C364.48 135.443 364.803 135.224 365.071 134.946C365.339 134.667 365.545 134.335 365.676 133.972C365.807 133.609 365.861 133.222 365.833 132.836Z" fill="white"/>
<path d="M378.797 132.056V137.579H376.71V136.429C376.365 136.878 375.912 137.231 375.392 137.455C374.873 137.679 374.304 137.766 373.742 137.707C371.598 137.707 370.234 136.529 370.234 134.867C370.234 133.206 371.285 132.027 374.154 132.027H376.596V131.885C376.596 130.607 375.815 129.84 374.239 129.84C373.215 129.831 372.216 130.161 371.399 130.778L370.518 129.216C371.688 128.408 373.088 128 374.509 128.051C377.221 128.023 378.797 129.315 378.797 132.056ZM376.596 134.64V133.476H374.31C372.805 133.476 372.407 134.029 372.407 134.725C372.407 135.421 373.074 136.032 374.21 136.032C374.706 136.069 375.201 135.953 375.628 135.699C376.055 135.445 376.393 135.065 376.596 134.612V134.64Z" fill="white"/>
<path d="M387.078 128.023V130.124C386.908 130.105 386.736 130.105 386.567 130.124C386.184 130.095 385.801 130.152 385.443 130.291C385.086 130.43 384.764 130.646 384.501 130.925C384.238 131.204 384.041 131.539 383.925 131.904C383.808 132.269 383.774 132.656 383.826 133.035V137.608H381.625V128.122H383.727V129.542C384.107 129.021 384.615 128.607 385.202 128.341C385.789 128.075 386.436 127.965 387.078 128.023Z" fill="white"/>
<path d="M398.091 124.458V137.55H395.975V136.315C395.59 136.759 395.108 137.11 394.567 137.341C394.026 137.573 393.439 137.678 392.851 137.65C391.571 137.65 390.343 137.141 389.438 136.236C388.532 135.33 388.023 134.102 388.023 132.822C388.023 131.541 388.532 130.313 389.438 129.408C390.343 128.503 391.571 127.994 392.851 127.994C393.42 127.967 393.987 128.066 394.513 128.285C395.038 128.503 395.509 128.835 395.89 129.258V124.43L398.091 124.458ZM395.919 132.836C395.896 132.28 395.711 131.742 395.386 131.29C395.06 130.839 394.61 130.492 394.089 130.295C393.569 130.097 393.001 130.057 392.458 130.179C391.915 130.301 391.42 130.58 391.034 130.981C390.648 131.383 390.388 131.889 390.288 132.436C390.187 132.984 390.25 133.549 390.467 134.061C390.685 134.573 391.049 135.011 391.513 135.318C391.978 135.625 392.522 135.789 393.079 135.79C393.465 135.805 393.851 135.738 394.21 135.593C394.569 135.449 394.894 135.23 395.162 134.951C395.43 134.672 395.636 134.339 395.767 133.974C395.897 133.61 395.949 133.222 395.919 132.836Z" fill="white"/>
<path d="M385.924 334.453H329.152C321.436 334.453 315.18 340.709 315.18 348.426V349.491C315.18 357.208 321.436 363.464 329.152 363.464H385.924C393.641 363.464 399.897 357.208 399.897 349.491V348.426C399.897 340.709 393.641 334.453 385.924 334.453Z" fill="#2F364B"/>
<path d="M391.175 275.102H320.984V277.942H391.175V275.102Z" fill="#2F364B"/>
<path d="M391.175 228.469H320.984V231.309H391.175V228.469Z" fill="#2F364B"/>
<path d="M391.175 183.516H320.984V186.356H391.175V183.516Z" fill="#2F364B"/>
<path d="M366.896 255.155C368.446 248.591 364.38 242.013 357.816 240.464C351.252 238.915 344.675 242.98 343.126 249.544C341.576 256.108 345.642 262.686 352.206 264.235C358.77 265.784 365.347 261.719 366.896 255.155Z" fill="#2F364B"/>
<path d="M363.761 249.718L356.732 256.733L353.452 260.013L350.172 256.733L353.452 253.466L360.481 246.438L363.761 249.718Z" fill="white"/>
<path d="M356.732 256.733L353.452 260.013L346.508 253.055L349.774 249.789L353.452 253.467L356.732 256.733Z" fill="white"/>
<path d="M360.754 311.962C366.985 309.381 369.944 302.237 367.363 296.006C364.782 289.775 357.639 286.816 351.407 289.397C345.176 291.978 342.217 299.122 344.798 305.353C347.379 311.584 354.523 314.543 360.754 311.962Z" fill="#2F364B"/>
<path d="M364.824 298.03L357.795 305.059L354.515 308.339L351.234 305.059L354.515 301.779L361.544 294.75L364.824 298.03Z" fill="white"/>
<path d="M357.794 305.06L354.514 308.34L347.57 301.382L350.836 298.102L354.514 301.779L357.794 305.06Z" fill="white"/>
<path d="M355.014 219.504C361.688 219.504 367.098 214.094 367.098 207.42C367.098 200.746 361.688 195.336 355.014 195.336C348.34 195.336 342.93 200.746 342.93 207.42C342.93 214.094 348.34 219.504 355.014 219.504Z" fill="#263238"/>
<path opacity="0.5" d="M355.014 219.504C361.688 219.504 367.098 214.094 367.098 207.42C367.098 200.746 361.688 195.336 355.014 195.336C348.34 195.336 342.93 200.746 342.93 207.42C342.93 214.094 348.34 219.504 355.014 219.504Z" fill="white"/>
<path d="M358.592 200.58L348.18 210.992L351.423 214.235L361.835 203.823L358.592 200.58Z" fill="white"/>
<path d="M348.197 203.838L358.609 214.25L361.853 211.007L351.44 200.594L348.197 203.838Z" fill="white"/>
<path d="M410.805 115.141V147.545L417.649 140.715V115.141H410.805Z" fill="#2F364B"/>
<path d="M424.479 115.141V147.545L417.648 140.715V115.141H424.479Z" fill="#2F364B"/>
<g opacity="0.3">
<path d="M424.494 115.133V147.566L417.649 140.707L410.805 147.566V115.133H424.494Z" fill="black"/>
</g>
<path d="M420.981 82.7427C421.448 83.6319 422.243 84.3034 423.199 84.6138C424.154 84.9242 425.192 84.849 426.093 84.4041C426.726 84.0951 427.431 83.9644 428.133 84.0261C428.834 84.0877 429.506 84.3394 430.075 84.754C430.645 85.1687 431.09 85.7306 431.364 86.3795C431.638 87.0283 431.731 87.7396 431.631 88.4369C431.498 89.4312 431.752 90.4386 432.342 91.2502C432.931 92.0618 433.811 92.6155 434.797 92.7963C435.492 92.9147 436.14 93.2208 436.673 93.6812C437.206 94.1417 437.603 94.739 437.82 95.4087C438.038 96.0784 438.069 96.7949 437.909 97.4807C437.749 98.1666 437.405 98.7956 436.913 99.2999C436.216 100.022 435.827 100.987 435.827 101.991C435.827 102.995 436.216 103.959 436.913 104.682C437.404 105.188 437.747 105.818 437.907 106.504C438.066 107.19 438.035 107.907 437.818 108.578C437.6 109.248 437.204 109.846 436.672 110.308C436.14 110.77 435.492 111.078 434.797 111.199C433.817 111.387 432.946 111.944 432.364 112.755C431.783 113.566 431.535 114.57 431.673 115.559C431.77 116.255 431.676 116.964 431.401 117.611C431.125 118.258 430.679 118.817 430.11 119.23C429.542 119.643 428.871 119.893 428.171 119.955C427.471 120.016 426.767 119.885 426.135 119.577C425.234 119.14 424.198 119.069 423.245 119.378C422.292 119.688 421.495 120.355 421.023 121.239C420.693 121.86 420.2 122.379 419.597 122.741C418.994 123.103 418.304 123.294 417.601 123.294C416.898 123.294 416.208 123.103 415.605 122.741C415.002 122.379 414.509 121.86 414.179 121.239C413.701 120.331 412.885 119.648 411.907 119.337C410.929 119.026 409.868 119.112 408.953 119.577C408.322 119.885 407.618 120.016 406.918 119.955C406.217 119.893 405.547 119.643 404.978 119.23C404.409 118.817 403.963 118.258 403.688 117.611C403.413 116.964 403.319 116.255 403.415 115.559C403.556 114.563 403.304 113.552 402.713 112.739C402.122 111.926 401.239 111.374 400.249 111.199C399.555 111.078 398.907 110.77 398.374 110.308C397.842 109.846 397.446 109.248 397.228 108.578C397.011 107.907 396.98 107.19 397.139 106.504C397.299 105.818 397.642 105.188 398.133 104.682C398.83 103.959 399.219 102.995 399.219 101.991C399.219 100.987 398.83 100.022 398.133 99.2999C397.646 98.7936 397.306 98.1647 397.149 97.4803C396.992 96.7958 397.024 96.0815 397.241 95.4137C397.458 94.7459 397.853 94.1497 398.383 93.6887C398.912 93.2276 399.557 92.9192 400.249 92.7963C401.237 92.6187 402.119 92.0659 402.709 91.2534C403.299 90.4409 403.552 89.4317 403.415 88.4369C403.316 87.7396 403.408 87.0283 403.682 86.3795C403.956 85.7306 404.401 85.1687 404.971 84.754C405.54 84.3394 406.212 84.0877 406.913 84.0261C407.615 83.9644 408.32 84.0951 408.953 84.4041C409.856 84.8459 410.896 84.9197 411.852 84.6097C412.809 84.2997 413.607 83.6303 414.08 82.7427C414.405 82.1075 414.899 81.5743 415.508 81.2021C416.117 80.8298 416.817 80.6328 417.53 80.6328C418.244 80.6328 418.944 80.8298 419.552 81.2021C420.161 81.5743 420.656 82.1075 420.981 82.7427Z" fill="#2F364B"/>
<path d="M420.981 82.7427C421.448 83.6319 422.243 84.3034 423.199 84.6138C424.154 84.9242 425.192 84.849 426.093 84.4041C426.726 84.0951 427.431 83.9644 428.133 84.0261C428.834 84.0877 429.506 84.3394 430.075 84.754C430.645 85.1687 431.09 85.7306 431.364 86.3795C431.638 87.0283 431.731 87.7396 431.631 88.4369C431.498 89.4312 431.752 90.4386 432.342 91.2502C432.931 92.0618 433.811 92.6155 434.797 92.7963C435.492 92.9147 436.14 93.2208 436.673 93.6812C437.206 94.1417 437.603 94.739 437.82 95.4087C438.038 96.0784 438.069 96.7949 437.909 97.4807C437.749 98.1666 437.405 98.7956 436.913 99.2999C436.216 100.022 435.827 100.987 435.827 101.991C435.827 102.995 436.216 103.959 436.913 104.682C437.404 105.188 437.747 105.818 437.907 106.504C438.066 107.19 438.035 107.907 437.818 108.578C437.6 109.248 437.204 109.846 436.672 110.308C436.14 110.77 435.492 111.078 434.797 111.199C433.817 111.387 432.946 111.944 432.364 112.755C431.783 113.566 431.535 114.57 431.673 115.559C431.77 116.255 431.676 116.964 431.401 117.611C431.125 118.258 430.679 118.817 430.11 119.23C429.542 119.643 428.871 119.893 428.171 119.955C427.471 120.016 426.767 119.885 426.135 119.577C425.234 119.14 424.198 119.069 423.245 119.378C422.292 119.688 421.495 120.355 421.023 121.239C420.693 121.86 420.2 122.379 419.597 122.741C418.994 123.103 418.304 123.294 417.601 123.294C416.898 123.294 416.208 123.103 415.605 122.741C415.002 122.379 414.509 121.86 414.179 121.239C413.701 120.331 412.885 119.648 411.907 119.337C410.929 119.026 409.868 119.112 408.953 119.577C408.322 119.885 407.618 120.016 406.918 119.955C406.217 119.893 405.547 119.643 404.978 119.23C404.409 118.817 403.963 118.258 403.688 117.611C403.413 116.964 403.319 116.255 403.415 115.559C403.556 114.563 403.304 113.552 402.713 112.739C402.122 111.926 401.239 111.374 400.249 111.199C399.555 111.078 398.907 110.77 398.374 110.308C397.842 109.846 397.446 109.248 397.228 108.578C397.011 107.907 396.98 107.19 397.139 106.504C397.299 105.818 397.642 105.188 398.133 104.682C398.83 103.959 399.219 102.995 399.219 101.991C399.219 100.987 398.83 100.022 398.133 99.2999C397.646 98.7936 397.306 98.1647 397.149 97.4803C396.992 96.7958 397.024 96.0815 397.241 95.4137C397.458 94.7459 397.853 94.1497 398.383 93.6887C398.912 93.2276 399.557 92.9192 400.249 92.7963C401.237 92.6187 402.119 92.0659 402.709 91.2534C403.299 90.4409 403.552 89.4317 403.415 88.4369C403.316 87.7396 403.408 87.0283 403.682 86.3795C403.956 85.7306 404.401 85.1687 404.971 84.754C405.54 84.3394 406.212 84.0877 406.913 84.0261C407.615 83.9644 408.32 84.0951 408.953 84.4041C409.856 84.8459 410.896 84.9197 411.852 84.6097C412.809 84.2997 413.607 83.6303 414.08 82.7427C414.405 82.1075 414.899 81.5743 415.508 81.2021C416.117 80.8298 416.817 80.6328 417.53 80.6328C418.244 80.6328 418.944 80.8298 419.552 81.2021C420.161 81.5743 420.656 82.1075 420.981 82.7427Z" fill="#2F364B"/>
<g opacity="0.5">
<path d="M420.981 82.7427C421.448 83.6319 422.243 84.3034 423.199 84.6138C424.154 84.9242 425.192 84.849 426.093 84.4041C426.726 84.0951 427.431 83.9644 428.133 84.0261C428.834 84.0877 429.506 84.3394 430.075 84.754C430.645 85.1687 431.09 85.7306 431.364 86.3795C431.638 87.0283 431.731 87.7396 431.631 88.4369C431.498 89.4312 431.752 90.4386 432.342 91.2502C432.931 92.0618 433.811 92.6155 434.797 92.7963C435.492 92.9147 436.14 93.2208 436.673 93.6812C437.206 94.1417 437.603 94.739 437.82 95.4087C438.038 96.0784 438.069 96.7949 437.909 97.4807C437.749 98.1666 437.405 98.7956 436.913 99.2999C436.216 100.022 435.827 100.987 435.827 101.991C435.827 102.995 436.216 103.959 436.913 104.682C437.404 105.188 437.747 105.818 437.907 106.504C438.066 107.19 438.035 107.907 437.818 108.578C437.6 109.248 437.204 109.846 436.672 110.308C436.14 110.77 435.492 111.078 434.797 111.199C433.817 111.387 432.946 111.944 432.364 112.755C431.783 113.566 431.535 114.57 431.673 115.559C431.77 116.255 431.676 116.964 431.401 117.611C431.125 118.258 430.679 118.817 430.11 119.23C429.542 119.643 428.871 119.893 428.171 119.955C427.471 120.016 426.767 119.885 426.135 119.577C425.234 119.14 424.198 119.069 423.245 119.378C422.292 119.688 421.495 120.355 421.023 121.239C420.693 121.86 420.2 122.379 419.597 122.741C418.994 123.103 418.304 123.294 417.601 123.294C416.898 123.294 416.208 123.103 415.605 122.741C415.002 122.379 414.509 121.86 414.179 121.239C413.701 120.331 412.885 119.648 411.907 119.337C410.929 119.026 409.868 119.112 408.953 119.577C408.322 119.885 407.618 120.016 406.918 119.955C406.217 119.893 405.547 119.643 404.978 119.23C404.409 118.817 403.963 118.258 403.688 117.611C403.413 116.964 403.319 116.255 403.415 115.559C403.556 114.563 403.304 113.552 402.713 112.739C402.122 111.926 401.239 111.374 400.249 111.199C399.555 111.078 398.907 110.77 398.374 110.308C397.842 109.846 397.446 109.248 397.228 108.578C397.011 107.907 396.98 107.19 397.139 106.504C397.299 105.818 397.642 105.188 398.133 104.682C398.83 103.959 399.219 102.995 399.219 101.991C399.219 100.987 398.83 100.022 398.133 99.2999C397.646 98.7936 397.306 98.1647 397.149 97.4803C396.992 96.7958 397.024 96.0815 397.241 95.4137C397.458 94.7459 397.853 94.1497 398.383 93.6887C398.912 93.2276 399.557 92.9192 400.249 92.7963C401.237 92.6187 402.119 92.0659 402.709 91.2534C403.299 90.4409 403.552 89.4317 403.415 88.4369C403.316 87.7396 403.408 87.0283 403.682 86.3795C403.956 85.7306 404.401 85.1687 404.971 84.754C405.54 84.3394 406.212 84.0877 406.913 84.0261C407.615 83.9644 408.32 84.0951 408.953 84.4041C409.856 84.8459 410.896 84.9197 411.852 84.6097C412.809 84.2997 413.607 83.6303 414.08 82.7427C414.405 82.1075 414.899 81.5743 415.508 81.2021C416.117 80.8298 416.817 80.6328 417.53 80.6328C418.244 80.6328 418.944 80.8298 419.552 81.2021C420.161 81.5743 420.656 82.1075 420.981 82.7427Z" fill="white"/>
</g>
<path d="M411.414 97.9844H409.653C409.262 97.9856 408.885 98.1312 408.594 98.3932C408.303 98.6552 408.119 99.0152 408.077 99.4044L407.651 107.527C407.639 107.72 407.667 107.914 407.734 108.096C407.8 108.279 407.903 108.445 408.036 108.586C408.169 108.727 408.329 108.84 408.507 108.916C408.685 108.993 408.877 109.032 409.071 109.032H410.832C411.236 109.026 411.622 108.867 411.915 108.588C412.207 108.309 412.383 107.93 412.408 107.527L412.834 99.4044C412.834 99.0278 412.684 98.6666 412.418 98.4003C412.152 98.134 411.791 97.9844 411.414 97.9844Z" fill="white"/>
<path d="M425.459 97.9828H421.327L422.477 95.2706C422.607 94.9866 422.656 94.672 422.619 94.3618L422.377 92.2318C422.332 91.8187 422.136 91.4369 421.827 91.1593C421.518 90.8816 421.117 90.7276 420.702 90.7266H418.643C418.516 92.8545 417.737 94.892 416.413 96.5628L415.149 98.1532C414.826 98.5596 414.632 99.0547 414.596 99.5732L414.198 107.156C414.185 107.395 414.22 107.635 414.303 107.86C414.385 108.086 414.512 108.292 414.677 108.466C414.842 108.64 415.041 108.779 415.261 108.873C415.482 108.968 415.719 109.017 415.959 109.016H423.158C423.478 109.013 423.793 108.943 424.084 108.811C424.375 108.679 424.635 108.488 424.848 108.249L425.516 107.511C425.749 107.215 425.914 106.87 425.998 106.503L427.418 100.383C427.48 100.102 427.482 99.811 427.423 99.5295C427.365 99.2479 427.247 98.9821 427.078 98.7496C426.886 98.5048 426.64 98.3081 426.359 98.175C426.078 98.0419 425.77 97.9761 425.459 97.9828Z" fill="white"/>
<path d="M355.008 147.555L357.294 151.218L361.483 152.255L358.714 155.563L359.012 159.852L355.008 158.247L351.018 159.852L351.316 155.563L348.547 152.255L352.736 151.218L355.008 147.555Z" fill="white"/>
<path d="M335.994 351.225C335.994 353.866 333.878 355.627 330.57 355.911L330.129 358.084H328.141L328.582 355.911C326.956 355.8 325.386 355.272 324.023 354.377L325.344 351.921C326.449 352.712 327.741 353.201 329.093 353.341L329.774 349.99C327.928 349.436 325.898 348.697 325.898 346.298C325.898 343.656 328.07 341.881 331.436 341.64L331.876 339.453H333.864L333.424 341.654C334.71 341.755 335.957 342.144 337.073 342.79L335.866 345.247C334.973 344.673 333.955 344.322 332.898 344.224L332.217 347.703C334.034 348.229 335.994 348.939 335.994 351.225ZM330.314 347.135L330.882 344.295C329.76 344.508 329.121 345.133 329.107 345.886C329.093 346.638 329.618 346.837 330.328 347.135H330.314ZM332.771 351.736C332.771 351.168 332.316 350.813 331.62 350.558L331.081 353.27C332.174 353.057 332.785 352.489 332.785 351.736H332.771Z" fill="white"/>
<path d="M235.376 115.719H152.306C137.696 115.719 125.852 127.563 125.852 142.173V367.641C125.852 382.251 137.696 394.096 152.306 394.096H235.376C249.987 394.096 261.831 382.251 261.831 367.641V142.173C261.831 127.563 249.987 115.719 235.376 115.719Z" fill="#263238"/>
<path opacity="0.7" d="M234.964 115.719H152.718C137.88 115.719 125.852 127.747 125.852 142.585V367.229C125.852 382.067 137.88 394.096 152.718 394.096H234.964C249.802 394.096 261.831 382.067 261.831 367.229V142.585C261.831 127.747 249.802 115.719 234.964 115.719Z" fill="white"/>
<path d="M261.831 129.379V184.603H125.852V129.379C125.852 125.756 127.291 122.282 129.853 119.72C132.414 117.158 135.889 115.719 139.512 115.719H248.17C251.793 115.719 255.268 117.158 257.83 119.72C260.392 122.282 261.831 125.756 261.831 129.379Z" fill="#2F364B"/>
<path d="M261.831 129.379V184.603H125.852V129.379C125.852 125.756 127.291 122.282 129.853 119.72C132.414 117.158 135.889 115.719 139.512 115.719H248.17C251.793 115.719 255.268 117.158 257.83 119.72C260.392 122.282 261.831 125.756 261.831 129.379Z" fill="#2F364B"/>
<path d="M182.664 150.065C182.664 152.181 181.017 153.416 177.836 153.416H171.688V141.062H177.495C180.463 141.062 182.054 142.312 182.054 144.272C182.069 144.827 181.928 145.376 181.647 145.856C181.366 146.335 180.956 146.726 180.463 146.984C181.123 147.175 181.7 147.583 182.099 148.142C182.498 148.701 182.698 149.379 182.664 150.065ZM173.988 142.852V146.274H177.225C178.816 146.274 179.725 145.72 179.725 144.584C179.725 143.448 178.816 142.866 177.225 142.866L173.988 142.852ZM180.349 149.838C180.349 148.603 179.426 148.049 177.694 148.049H173.988V151.613H177.694C179.426 151.613 180.335 151.073 180.335 149.838H180.349Z" fill="white"/>
<path d="M192.805 147.883V153.364H190.732V152.214C190.383 152.658 189.929 153.007 189.41 153.231C188.892 153.454 188.326 153.544 187.764 153.492C185.605 153.492 184.242 152.313 184.242 150.652C184.242 148.991 185.307 147.812 188.161 147.812H190.604V147.67C190.604 146.378 189.823 145.625 188.247 145.625C187.223 145.619 186.225 145.948 185.407 146.562L184.54 144.958C185.71 144.15 187.11 143.742 188.531 143.793C191.243 143.879 192.805 145.157 192.805 147.883ZM190.604 150.524V149.431H188.318C186.827 149.431 186.415 149.999 186.415 150.695C186.415 151.39 187.082 152.001 188.218 152.001C188.72 152.036 189.221 151.913 189.649 151.648C190.077 151.383 190.411 150.99 190.604 150.524Z" fill="white"/>
<path d="M194.539 152.467L195.391 150.792C196.378 151.4 197.513 151.724 198.671 151.729C200.091 151.729 200.659 151.346 200.659 150.692C200.659 148.889 194.823 150.579 194.823 146.816C194.823 145.041 196.428 143.876 198.984 143.876C200.206 143.853 201.416 144.131 202.505 144.686L201.667 146.361C200.845 145.883 199.907 145.637 198.955 145.651C197.62 145.651 196.981 146.092 196.981 146.716C196.981 148.619 202.803 146.929 202.803 150.621C202.803 152.382 201.185 153.532 198.543 153.532C197.136 153.557 195.749 153.188 194.539 152.467Z" fill="white"/>
<path d="M204.472 141.092C204.472 140.715 204.621 140.354 204.888 140.088C205.154 139.821 205.515 139.672 205.892 139.672C206.268 139.672 206.629 139.821 206.896 140.088C207.162 140.354 207.312 140.715 207.312 141.092C207.312 141.468 207.162 141.83 206.896 142.096C206.629 142.362 206.268 142.512 205.892 142.512C205.702 142.524 205.512 142.496 205.334 142.429C205.156 142.362 204.994 142.258 204.86 142.124C204.725 141.989 204.621 141.828 204.554 141.65C204.487 141.472 204.459 141.282 204.472 141.092ZM204.77 143.932H206.971V153.361H204.77V143.932Z" fill="white"/>
<path d="M209.047 148.693C209.04 148.033 209.169 147.379 209.427 146.772C209.685 146.164 210.067 145.617 210.547 145.165C211.028 144.712 211.597 144.365 212.218 144.143C212.84 143.922 213.501 143.832 214.159 143.879C214.968 143.824 215.775 144 216.487 144.388C217.199 144.775 217.785 145.357 218.178 146.066L216.488 147.046C216.247 146.641 215.904 146.307 215.493 146.077C215.081 145.848 214.616 145.731 214.145 145.74C213.362 145.74 212.61 146.051 212.056 146.605C211.503 147.159 211.191 147.91 211.191 148.693C211.191 149.477 211.503 150.228 212.056 150.782C212.61 151.336 213.362 151.647 214.145 151.647C214.616 151.655 215.081 151.539 215.493 151.309C215.904 151.08 216.247 150.746 216.488 150.34L218.178 151.32C217.789 152.034 217.204 152.623 216.492 153.015C215.78 153.408 214.971 153.588 214.159 153.535C213.5 153.578 212.838 153.485 212.216 153.26C211.594 153.036 211.026 152.685 210.546 152.231C210.066 151.776 209.685 151.227 209.427 150.618C209.169 150.01 209.04 149.354 209.047 148.693Z" fill="white"/>
<path d="M200.369 279.287C205.088 274.568 205.088 266.917 200.369 262.197C195.65 257.478 187.998 257.478 183.279 262.197C178.56 266.917 178.56 274.568 183.279 279.287C187.998 284.006 195.65 284.006 200.369 279.287Z" fill="#263238"/>
<path opacity="0.5" d="M200.369 279.287C205.088 274.568 205.088 266.917 200.369 262.197C195.65 257.478 187.998 257.478 183.279 262.197C178.56 266.917 178.56 274.568 183.279 279.287C187.998 284.006 195.65 284.006 200.369 279.287Z" fill="white"/>
<path d="M195.397 263.916L184.984 274.328L188.228 277.571L198.64 267.159L195.397 263.916Z" fill="white"/>
<path d="M184.986 267.173L195.398 277.586L198.642 274.343L188.229 263.93L184.986 267.173Z" fill="white"/>
<path d="M192.376 327.619C199.121 327.619 204.588 322.152 204.588 315.407C204.588 308.663 199.121 303.195 192.376 303.195C185.632 303.195 180.164 308.663 180.164 315.407C180.164 322.152 185.632 327.619 192.376 327.619Z" fill="#2F364B"/>
<path d="M201.121 312.757L194.092 319.786L190.811 323.066L187.531 319.786L190.811 316.506L197.84 309.477L201.121 312.757Z" fill="white"/>
<path d="M194.099 319.786L190.819 323.066L183.875 316.108L187.141 312.828L190.819 316.506L194.099 319.786Z" fill="white"/>
<path d="M222.229 350.305H165.457C157.74 350.305 151.484 356.561 151.484 364.277V365.342C151.484 373.059 157.74 379.315 165.457 379.315H222.229C229.946 379.315 236.202 373.059 236.202 365.342V364.277C236.202 356.561 229.946 350.305 222.229 350.305Z" fill="#2F364B"/>
<path d="M169.844 367.561C169.844 370.202 167.728 371.963 164.406 372.233L163.98 374.419H161.992L162.432 372.233C160.802 372.13 159.226 371.607 157.859 370.713L159.194 368.257C160.299 369.047 161.591 369.537 162.943 369.677L163.61 366.325C161.779 365.772 159.748 365.033 159.748 362.633C159.748 359.992 161.906 358.203 165.286 357.976L165.726 355.789H167.7L167.274 357.99C168.56 358.091 169.807 358.479 170.923 359.126L169.702 361.583C168.815 361.004 167.802 360.649 166.749 360.546L166.053 364.039C167.885 364.565 169.844 365.275 169.844 367.561ZM164.164 363.471L164.732 360.631C163.596 360.844 162.971 361.455 162.943 362.222C162.915 362.988 163.454 363.173 164.178 363.528L164.164 363.471ZM166.621 368.072C166.621 367.504 166.166 367.135 165.471 366.879L164.931 369.606C166.01 369.378 166.635 368.825 166.635 368.072H166.621Z" fill="white"/>
<path d="M227.48 290.945H157.289V293.785H227.48V290.945Z" fill="#2F364B"/>
<path d="M227.48 244.32H157.289V247.16H227.48V244.32Z" fill="#2F364B"/>
<path d="M227.48 199.367H157.289V202.207H227.48V199.367Z" fill="#2F364B"/>
<path d="M200.369 231.81C205.088 227.091 205.088 219.44 200.369 214.721C195.65 210.002 187.998 210.002 183.279 214.721C178.56 219.44 178.56 227.091 183.279 231.81C187.998 236.53 195.65 236.53 200.369 231.81Z" fill="#263238"/>
<path opacity="0.5" d="M200.369 231.81C205.088 227.091 205.088 219.44 200.369 214.721C195.65 210.002 187.998 210.002 183.279 214.721C178.56 219.44 178.56 227.091 183.279 231.81C187.998 236.53 195.65 236.53 200.369 231.81Z" fill="white"/>
<path d="M195.405 216.431L184.992 226.844L188.235 230.087L198.648 219.675L195.405 216.431Z" fill="white"/>
<path d="M184.994 219.681L195.406 230.094L198.649 226.851L188.237 216.438L184.994 219.681Z" fill="white"/>
<path d="M329.367 584.795L340.401 586.314L351.675 564.304L339.463 562.273L329.367 584.795Z" fill="#FFC2BC"/>
<path opacity="0.2" d="M339.464 562.273L351.676 564.304L345.528 576.275L333.969 574.542L339.464 562.273Z" fill="black"/>
<path d="M343.633 582.203L329.987 581.464C329.762 581.445 329.537 581.508 329.355 581.641C329.172 581.774 329.044 581.968 328.993 582.189L326.224 592.129C326.166 592.337 326.15 592.554 326.176 592.768C326.203 592.982 326.272 593.189 326.379 593.377C326.486 593.564 326.629 593.729 326.8 593.861C326.97 593.992 327.166 594.089 327.374 594.145H327.758C332.174 594.315 335.355 594.216 340.95 594.514C344.372 594.699 354.653 595.622 359.41 595.934C364.167 596.247 364.99 591.546 363.087 591.021C354.567 588.664 348.177 585.639 345.522 583.055C345.029 582.533 344.351 582.227 343.633 582.203Z" fill="#263238"/>
<path d="M344.307 583.633C344.253 583.62 344.206 583.589 344.172 583.545C344.138 583.501 344.121 583.447 344.122 583.392C344.111 583.341 344.118 583.288 344.141 583.241C344.164 583.195 344.203 583.158 344.25 583.136C344.662 582.909 348.425 580.878 349.632 581.574C349.768 581.652 349.879 581.767 349.951 581.905C350.024 582.043 350.056 582.199 350.044 582.355C350.075 582.628 350.033 582.903 349.92 583.153C349.808 583.403 349.63 583.618 349.405 583.775C348.749 584.172 347.976 584.327 347.218 584.215C346.228 584.136 345.251 583.94 344.307 583.633ZM349.007 582.043C347.639 582.219 346.315 582.648 345.102 583.307C346.382 583.825 347.813 583.825 349.092 583.307C349.232 583.196 349.343 583.053 349.415 582.889C349.487 582.726 349.517 582.547 349.504 582.369C349.505 582.308 349.492 582.247 349.468 582.191C349.443 582.135 349.407 582.084 349.362 582.043C349.246 582.014 349.124 582.014 349.007 582.043Z" fill="#2F364B"/>
<path d="M344.278 583.809C344.242 583.776 344.214 583.737 344.195 583.693C344.175 583.649 344.165 583.602 344.164 583.554C344.164 583.383 344.562 580.174 345.925 579.194C346.087 579.065 346.274 578.972 346.476 578.923C346.677 578.874 346.886 578.87 347.089 578.91C347.289 578.918 347.48 578.997 347.628 579.132C347.776 579.267 347.872 579.45 347.899 579.649C348.055 580.841 345.683 583.199 344.491 583.767H344.363L344.278 583.809ZM346.862 579.322C346.645 579.322 346.434 579.397 346.266 579.535C345.418 580.499 344.883 581.697 344.732 582.971C345.939 582.176 347.473 580.373 347.359 579.634C347.359 579.563 347.359 579.365 347.004 579.336H346.862V579.322Z" fill="#2F364B"/>
<path d="M270.504 520.872L278.583 521.171C292.04 520.545 305.399 518.561 318.457 515.249C330.144 512.409 349.512 503.463 349.512 503.463C343.279 530.131 332.046 570.771 332.046 570.771L349.399 572.773C349.399 572.773 394.583 486.693 374.646 476.838C356.825 467.324 287.884 473.572 287.884 473.572L280.784 466.117L232.604 470.022C232.604 470.022 223.388 520.801 270.504 520.872Z" fill="#263238"/>
<path d="M350.508 576.292L330.656 570.271L333.042 561.992L354.555 570.186L350.508 576.292Z" fill="#2F364B"/>
<path opacity="0.5" d="M350.508 576.292L330.656 570.271L333.042 561.992L354.555 570.186L350.508 576.292Z" fill="white"/>
<path opacity="0.4" d="M276.487 502.046C281.329 516.246 318.122 514.826 323.248 514.144C292.959 519.981 287.251 520.776 278.589 521.173L270.509 520.875C267.985 520.874 265.465 520.688 262.969 520.321C266.718 495.912 270.637 484.907 276.487 502.046Z" fill="black"/>
<path d="M177.303 560.281L175.883 571.442L201.627 575.646L203.047 564.47L177.303 560.281Z" fill="#FFC2BC"/>
<path d="M178.167 572.995L186.176 561.848C186.304 561.666 186.367 561.446 186.354 561.225C186.341 561.003 186.253 560.792 186.105 560.626L179.275 552.973C178.979 552.647 178.566 552.453 178.126 552.432C177.687 552.41 177.258 552.564 176.932 552.859C176.852 552.951 176.789 553.057 176.747 553.171C174.219 556.807 172.586 559.533 169.32 564.091C167.332 566.86 160.999 575.054 158.259 578.873C155.518 582.693 158.94 585.973 160.403 584.553C167.006 578.618 172.927 574.855 176.577 574.045C177.218 573.904 177.785 573.53 178.167 572.995Z" fill="#263238"/>
<path d="M176.448 572.706C176.493 572.679 176.544 572.664 176.597 572.664C176.65 572.664 176.701 572.679 176.746 572.706C176.793 572.728 176.832 572.765 176.855 572.812C176.879 572.858 176.885 572.911 176.874 572.962C176.874 573.445 176.547 577.705 175.312 578.33C175.18 578.413 175.028 578.457 174.872 578.457C174.716 578.457 174.563 578.413 174.432 578.33C174.191 578.206 173.988 578.022 173.841 577.795C173.694 577.568 173.608 577.307 173.594 577.037C173.609 576.27 173.89 575.533 174.389 574.95C174.993 574.13 175.683 573.378 176.448 572.706ZM176.306 573.558C175.17 574.356 174.387 575.562 174.119 576.924C174.139 577.103 174.201 577.274 174.3 577.424C174.399 577.575 174.531 577.7 174.687 577.79C174.872 577.889 175.014 577.875 175.042 577.79C175.157 577.742 175.252 577.657 175.312 577.549C175.886 576.291 176.223 574.938 176.306 573.558Z" fill="#2F364B"/>
<path d="M176.458 572.62C176.545 572.585 176.641 572.585 176.728 572.62C176.856 572.734 179.312 574.85 179.412 576.525C179.43 576.727 179.406 576.93 179.34 577.121C179.273 577.312 179.167 577.486 179.028 577.633C178.913 577.799 178.744 577.92 178.55 577.974C178.355 578.029 178.148 578.013 177.963 577.931C176.856 577.42 176.16 574.154 176.33 572.848V572.734C176.342 572.707 176.359 572.682 176.381 572.663C176.403 572.643 176.43 572.629 176.458 572.62ZM178.957 576.653C178.592 575.421 177.865 574.328 176.87 573.515C176.877 574.976 177.378 576.392 178.29 577.534C178.33 577.555 178.373 577.568 178.418 577.572C178.463 577.575 178.509 577.57 178.551 577.555C178.594 577.54 178.633 577.517 178.666 577.486C178.7 577.456 178.726 577.419 178.744 577.377V577.25C178.864 577.074 178.924 576.865 178.915 576.653H178.957Z" fill="#2F364B"/>
<path opacity="0.2" d="M203.033 564.455L201.613 575.645L188.336 573.472L189.77 562.297L203.033 564.455Z" fill="black"/>
<path d="M277.507 491.474C281.426 497.68 294.973 572.542 269.683 589.27C251.052 601.553 192.406 578.307 192.406 578.307L194.281 559.72C194.281 559.72 241.922 568.637 247.815 563.838C253.708 559.038 234.041 507.038 233.075 494.868C232.109 482.699 277.507 491.474 277.507 491.474Z" fill="#263238"/>
<path d="M191.102 579.66L191.741 558.914L200.346 559.07L198.045 581.975L191.102 579.66Z" fill="#2F364B"/>
<path opacity="0.5" d="M191.102 579.66L191.741 558.914L200.346 559.07L198.045 581.975L191.102 579.66Z" fill="white"/>
<path d="M282.819 468.083C281.3 465.243 276.671 459.663 272.212 458.882C266.291 457.845 265.027 457.618 242.179 461.125C231.401 462.772 230.62 471.236 231.217 475.623C231.298 476.212 231.538 476.767 231.912 477.228L232.409 477.839C233.517 478.179 282.109 469.645 282.606 469.915C282.808 469.659 282.934 469.352 282.972 469.029C283.01 468.706 282.957 468.378 282.819 468.083Z" fill="#2F364B"/>
<path opacity="0.2" d="M282.819 468.083C281.3 465.243 276.671 459.663 272.212 458.882C266.291 457.845 265.027 457.618 242.179 461.125C231.401 462.772 230.62 471.236 231.217 475.623C231.298 476.212 231.538 476.767 231.912 477.228L232.409 477.839C233.517 478.179 282.109 469.645 282.606 469.915C282.808 469.659 282.934 469.352 282.972 469.029C283.01 468.706 282.957 468.378 282.819 468.083Z" fill="white"/>
<path d="M335.566 386.24C338.716 386.009 341.767 385.035 344.469 383.4C346.332 382.094 347.919 380.434 349.141 378.515C349.531 377.941 349.698 377.244 349.609 376.555C349.405 374.943 348.767 373.417 347.763 372.139C347.488 371.807 347.096 371.593 346.667 371.543C346.239 371.492 345.807 371.609 345.463 371.869C343.816 373.048 341.941 374.283 340.465 375.433C336.304 376.214 332.356 380.048 332.016 384.266C333.137 384.82 334.43 385.643 335.566 386.24Z" fill="#FFC2BC"/>
<path d="M337.387 380.664L338.523 386.159C338.523 386.159 311.188 405.514 305.976 405.798C302.398 405.997 298.252 406.181 293.963 406.323C289.05 406.494 283.924 406.593 279.266 406.565C270.846 406.494 263.959 405.94 262.553 404.463C258.293 399.962 262.851 392.862 269.511 392.933C278.187 393.018 293.353 395.077 307.751 394.523C312.679 394.339 337.387 380.664 337.387 380.664Z" fill="#FFC2BC"/>
<path opacity="0.2" d="M293.943 406.327C289.029 406.498 283.903 406.597 279.245 406.569L274.062 399.156C280.919 400.855 287.581 403.258 293.943 406.327Z" fill="black"/>
<path d="M276.904 391.341C276.904 391.341 264.849 389.055 262.804 394.877C260.759 400.699 266.127 411.065 282.883 409.247L284.587 391.525L276.904 391.341Z" fill="#2F364B"/>
<path opacity="0.2" d="M276.904 391.341C276.904 391.341 264.849 389.055 262.804 394.877C260.759 400.699 266.127 411.065 282.883 409.247L284.587 391.525L276.904 391.341Z" fill="white"/>
<path d="M267.689 391.49C268.015 392.058 277.189 404.114 278.467 413.514C279.39 420.302 278.467 427.714 278.339 435.269C278.239 440.721 280.171 452.309 280.171 452.309L281.69 455.802C282.304 457.219 282.604 458.752 282.57 460.297C282.536 461.841 282.168 463.359 281.491 464.748L280.824 466.168L231.82 472.728L231.521 472.572C231.521 472.572 227.162 468.923 228.61 464.279V460.687C230.57 454.282 230.03 446.032 225.174 429.006C223.626 423.454 221.908 416.638 221.908 416.638C223.2 404.369 219.21 398.178 219.167 398.178C219.125 398.178 219.167 398.107 219.167 398.093C225.066 396.146 231.098 394.628 237.216 393.549C243.714 392.334 250.291 391.584 256.897 391.305C263.116 391.291 267.675 391.476 267.689 391.49Z" fill="#2F364B"/>
<path d="M262.85 348.301C265.931 351.866 266.598 356.821 267.905 361.408C268.97 365.1 271.284 372.598 269.85 376.148C268.217 380.195 260.18 376.772 257.51 380.209C246.889 393.94 240.47 388.033 236.395 384.639C234.35 382.964 226.583 381.302 224.581 379.584C222.578 377.866 219.156 377 220.633 370.326C226.54 343.587 236.352 342.011 249.445 342.735C254.457 343.005 259.47 344.382 262.85 348.301Z" fill="#263238"/>
<path d="M236.617 371.188C238.591 377.393 241.161 388.852 237.199 393.595L240.409 396.747C241.688 397.997 243.285 398.871 245.027 399.276C246.768 399.681 248.588 399.602 250.287 399.045C251.986 398.489 253.501 397.478 254.666 396.122C255.831 394.765 256.602 393.115 256.895 391.352C249.667 390.457 250.959 383.186 249.426 376.243L236.617 371.188Z" fill="#FFC2BC"/>
<path opacity="0.2" d="M252.949 368.922C251.614 373.963 249.853 382.071 251.529 387.566C245.082 388.347 240.609 382.611 240.297 380.75C241.017 378.519 241.563 376.236 241.93 373.92L252.949 368.922Z" fill="black"/>
<path d="M234.418 361.465C235.526 372.087 235.767 376.602 241.376 381.828C249.811 389.695 262.676 386.003 264.692 375.282C266.567 365.626 264.437 349.906 253.844 346.101C251.511 345.254 249 345.017 246.55 345.413C244.1 345.81 241.793 346.826 239.846 348.366C237.9 349.905 236.379 351.917 235.429 354.21C234.479 356.502 234.131 359 234.418 361.465Z" fill="#FFC2BC"/>
<path d="M236.977 367.038C237.808 368.461 238.248 370.077 238.255 371.724C238.721 371.367 239.054 370.864 239.201 370.295C239.348 369.726 239.299 369.124 239.064 368.586C238.723 367.464 238.141 366.925 236.977 367.038Z" fill="#263238"/>
<path d="M231.027 371.816C232.131 373.562 233.874 374.806 235.884 375.281C238.553 375.863 239.746 373.449 238.88 371.021C238.113 368.82 235.77 365.909 233.2 366.349C232.29 366.544 231.494 367.09 230.986 367.87C230.477 368.65 230.298 369.599 230.488 370.51C230.576 370.978 230.759 371.423 231.027 371.816Z" fill="#FFC2BC"/>
<path d="M249.612 363.953C249.612 364.89 250.18 365.6 250.776 365.6C251.373 365.6 251.856 364.791 251.813 363.868C251.77 362.945 251.231 362.22 250.634 362.235C250.038 362.249 249.569 363.03 249.612 363.953Z" fill="#263238"/>
<path d="M260.134 363.528C260.134 364.451 260.702 365.175 261.313 365.161C261.924 365.147 262.392 364.366 262.335 363.428C262.279 362.491 261.782 361.781 261.171 361.781C260.56 361.781 260.049 362.562 260.134 363.528Z" fill="#263238"/>
<path d="M260.906 361.822L263.093 361.141C263.093 361.141 262.056 362.83 260.906 361.822Z" fill="#263238"/>
<path d="M257.422 365.234C258.346 367.324 259.55 369.277 261 371.042C260.538 371.398 260.004 371.65 259.436 371.78C258.867 371.91 258.277 371.915 257.706 371.795L257.422 365.234Z" fill="#EC837E"/>
<path d="M254.513 375.038C255.045 375.247 255.597 375.399 256.16 375.492C256.19 375.498 256.221 375.499 256.251 375.493C256.281 375.487 256.309 375.475 256.334 375.457C256.36 375.44 256.381 375.418 256.398 375.392C256.414 375.367 256.425 375.338 256.43 375.308C256.436 375.248 256.42 375.189 256.387 375.139C256.353 375.09 256.303 375.054 256.246 375.038C255.089 374.869 253.99 374.427 253.039 373.747C252.088 373.068 251.313 372.172 250.779 371.133C250.76 371.078 250.723 371.031 250.674 371C250.625 370.969 250.566 370.956 250.509 370.963C250.455 370.973 250.407 371.004 250.375 371.049C250.343 371.094 250.33 371.149 250.338 371.204C251.177 372.977 252.675 374.353 254.513 375.038Z" fill="#263238"/>
<path d="M247.081 357.044C247.143 357.061 247.209 357.061 247.272 357.044C247.335 357.026 247.391 356.992 247.436 356.944C247.845 356.499 248.356 356.159 248.924 355.951C249.492 355.744 250.102 355.675 250.702 355.751C250.808 355.765 250.916 355.74 251.005 355.68C251.094 355.619 251.158 355.529 251.184 355.425C251.202 355.378 251.211 355.329 251.209 355.279C251.207 355.229 251.195 355.18 251.174 355.135C251.153 355.09 251.123 355.049 251.085 355.016C251.048 354.983 251.004 354.958 250.957 354.942C250.231 354.841 249.491 354.917 248.801 355.164C248.111 355.411 247.492 355.823 246.995 356.362C246.918 356.433 246.868 356.529 246.855 356.633C246.842 356.737 246.867 356.843 246.924 356.93C246.94 356.96 246.962 356.986 246.989 357.006C247.016 357.025 247.047 357.038 247.081 357.044Z" fill="#263238"/>
<path d="M264.123 357.001C264.198 357.024 264.279 357.027 264.356 357.01C264.433 356.992 264.504 356.955 264.563 356.902C264.647 356.817 264.694 356.702 264.694 356.582C264.694 356.462 264.647 356.348 264.563 356.263C264.005 355.616 263.299 355.114 262.506 354.8C261.712 354.486 260.854 354.369 260.005 354.459C259.947 354.464 259.891 354.481 259.841 354.509C259.79 354.536 259.745 354.573 259.71 354.619C259.674 354.664 259.647 354.716 259.632 354.771C259.617 354.827 259.613 354.885 259.621 354.942C259.642 355.061 259.709 355.166 259.808 355.235C259.906 355.305 260.028 355.332 260.147 355.311C260.848 355.255 261.553 355.365 262.204 355.631C262.855 355.897 263.435 356.313 263.895 356.845C263.95 356.922 264.031 356.978 264.123 357.001Z" fill="#263238"/>
<path d="M250.383 362.282L252.57 361.586C252.57 361.586 251.519 363.333 250.383 362.282Z" fill="#263238"/>
<path d="M244.574 351.085C247.712 354.919 236.366 364.944 236.977 367.046C233.895 367.245 231.609 360.784 231.453 357.432C231.295 354.048 232.353 350.719 234.435 348.046C235.755 346.356 238.198 346.044 240.342 345.76C240.963 345.628 241.609 345.677 242.202 345.902C242.56 346.095 242.863 346.374 243.086 346.714C243.309 347.053 243.445 347.443 243.48 347.847C243.637 348.986 244.008 350.084 244.574 351.085Z" fill="#263238"/>
<path d="M240.336 345.764C242.38 347.387 243.888 349.588 244.66 352.082C245.433 354.575 245.435 357.243 244.667 359.737C246.044 358.615 247.183 357.229 248.018 355.662C248.457 354.845 248.66 353.923 248.605 352.997C248.55 352.072 248.239 351.18 247.706 350.422C249.204 351.527 250.469 352.917 251.427 354.514C252.385 356.11 253.017 357.881 253.286 359.723C253.928 359.251 254.457 358.644 254.838 357.945C255.218 357.245 255.44 356.471 255.487 355.676C255.554 354.895 255.448 354.109 255.179 353.373C254.909 352.637 254.481 351.969 253.925 351.416C255.016 352.371 255.849 353.587 256.345 354.95C256.842 356.312 256.986 357.778 256.765 359.212C257.489 358.652 258.068 357.927 258.451 357.096C258.834 356.265 259.011 355.354 258.966 354.441C258.888 353.464 258.592 352.517 258.101 351.67C257.609 350.822 256.935 350.095 256.126 349.541C257.616 350.363 258.865 351.562 259.747 353.017C260.629 354.472 261.114 356.133 261.153 357.834C264.391 354.696 263.297 350.195 259.321 347.724C253.495 344.604 246.676 343.9 240.336 345.764Z" fill="#263238"/>
<path d="M238.767 390.148L234.961 393.968C234.961 393.968 249.473 403.454 249.686 402.815C250.613 401.395 251.633 400.038 252.739 398.754L238.767 390.148Z" fill="#2F364B"/>
<path d="M253.113 389.344L258.182 391.19C258.182 391.19 257.685 401.939 257.217 401.442C255.786 400.538 254.297 399.731 252.758 399.028L253.113 389.344Z" fill="#2F364B"/>
<path opacity="0.2" d="M238.767 390.148L234.961 393.968C234.961 393.968 249.473 403.454 249.686 402.815C250.613 401.395 251.633 400.038 252.739 398.754L238.767 390.148Z" fill="white"/>
<path opacity="0.2" d="M253.113 389.344L258.182 391.19C258.182 391.19 257.685 401.939 257.217 401.442C255.786 400.538 254.297 399.731 252.758 399.028L253.113 389.344Z" fill="white"/>
<path d="M160.742 434.938L148.516 436.102L152.776 445.701C156.092 444.248 159.263 442.484 162.247 440.433L160.742 434.938Z" fill="#FFC2BC"/>
<path d="M144 443.443L144.199 443.798C144.573 444.447 145.117 444.982 145.773 445.345C146.428 445.708 147.17 445.885 147.919 445.857L152.79 445.701L148.53 436.102L145.548 437.806C145.075 438.073 144.659 438.431 144.324 438.859C143.99 439.288 143.744 439.778 143.6 440.302C143.456 440.826 143.417 441.373 143.486 441.912C143.555 442.452 143.729 442.972 144 443.443Z" fill="#FFC2BC"/>
<path d="M163.483 440.077C163.483 440.077 184.854 442.037 204.862 432.594C204.862 432.594 218.309 421.39 225.58 411.975C236.372 397.974 226.332 393.757 218.366 402.788C212.459 409.49 198.77 422.441 198.77 422.441C181.574 432.381 159.237 435.476 159.237 435.476C154.906 441.724 163.483 440.077 163.483 440.077Z" fill="#FFC2BC"/>
<path d="M231.77 397.458C236.853 401.534 229.271 412.184 219.387 424.992L207.133 409.088C207.133 409.088 222.682 390.174 231.77 397.458Z" fill="#2F364B"/>
<path opacity="0.2" d="M231.77 397.458C236.853 401.534 229.271 412.184 219.387 424.992L207.133 409.088C207.133 409.088 222.682 390.174 231.77 397.458Z" fill="white"/>
</svg>
